<svg xmlns="http://www.w3.org/2000/svg" width="511.999" height="511.999" viewBox="0 0 511.999 511.999">
  <g id="API" transform="translate(0 0)">
    <path id="Path_1" data-name="Path 1" d="M162.559,267.62H189.63L176.156,235.6Z" fill="#fff"/>
    <path id="Path_2" data-name="Path 2" d="M292.384,216.5H277.49c.016,6.039.03,12.287.03,15.343,0,3.562.024,9.62.052,15.394,5.532-.027,11.3-.051,14.812-.051,8.639,0,15.937-7.026,15.937-15.343S301.023,216.5,292.384,216.5Z" fill="#fff"/>
    <path id="Path_3" data-name="Path 3" d="M498.673,211.09l-44.845-5.032a201.492,201.492,0,0,0-22.646-54.613l28.165-35.291a15,15,0,0,0-1.117-19.963L415.8,53.765a15,15,0,0,0-19.965-1.116L360.563,80.808A201.424,201.424,0,0,0,305.937,58.16L300.9,13.327A15,15,0,0,0,285.995,0H226A15,15,0,0,0,211.09,13.327l-5.03,44.832A201.4,201.4,0,0,0,151.432,80.8L116.161,52.649A15,15,0,0,0,96.2,53.765L53.771,96.19a15,15,0,0,0-1.117,19.963l28.151,35.273a201.417,201.417,0,0,0-22.646,54.633l-44.831,5.03A15,15,0,0,0,0,226v60A15,15,0,0,0,13.326,300.9l44.845,5.036a201.436,201.436,0,0,0,22.645,54.615L52.649,395.838A15,15,0,0,0,53.765,415.8l42.426,42.427a15,15,0,0,0,19.963,1.117l35.28-28.157a201.428,201.428,0,0,0,54.625,22.649l5.031,44.834A15,15,0,0,0,226,512h60A15,15,0,0,0,300.9,498.673l5.036-44.845a201.487,201.487,0,0,0,54.618-22.647l35.291,28.165a15,15,0,0,0,19.963-1.117L458.235,415.8a15,15,0,0,0,1.116-19.965l-28.159-35.275a201.423,201.423,0,0,0,22.648-54.626l44.833-5.035A15,15,0,0,0,512,285.995V226a15,15,0,0,0-13.326-14.906ZM229.138,322.848a15.175,15.175,0,0,1-19.643-8.01c0-.006-7.244-17.218-7.244-17.218h-52.43l-7.33,17.264a15.174,15.174,0,0,1-19.669,7.944,15,15,0,0,1-7.945-19.669l45.009-106.007a17.83,17.83,0,0,1,32.661.041l44.6,106.012a15,15,0,0,1-8.01,19.643Zm63.246-45.662c-3.487,0-9.345.024-14.938.052v31.784a15,15,0,0,1-30,0V201.5a15.011,15.011,0,0,1,15-15h29.938c25.329,0,45.937,20.341,45.937,45.343S317.713,277.186,292.384,277.186Zm87.936,31.835a15,15,0,0,1-30,0V201.5a15,15,0,1,1,30,0Z" fill="#fff"/>
  </g>
</svg>
