<svg xmlns="http://www.w3.org/2000/svg" width="468" height="468" viewBox="0 0 468 468">
  <path id="autocollect" d="M412.963,234a174.839,174.839,0,0,0-2.314-28.334L468,165.073,411.624,68.928l-64.4,28.615A179.463,179.463,0,0,0,297.4,69.179L290.376,0H177.624L170.6,69.178a179.462,179.462,0,0,0-49.827,28.364L56.376,68.927,0,165.073l57.351,40.593a174.626,174.626,0,0,0,0,56.668L0,302.927l56.376,96.145,64.4-28.615A179.463,179.463,0,0,0,170.6,398.821L177.624,468H290.375l7.026-69.178a179.462,179.462,0,0,0,49.827-28.364l64.4,28.615L468,302.927l-57.351-40.593A174.725,174.725,0,0,0,412.963,234ZM126.23,262.8,87.9,230.835l19.161-22.977,13.277,11.073c6.446-49.056,45.139-89.226,93.761-97.8A114.1,114.1,0,0,1,318.909,157l-22.146,20.116a84.356,84.356,0,0,0-77.47-26.523c-36.753,6.48-65.683,37.35-69.537,74.552l20.428-12.59,15.7,25.47-42.222,26.022A14.862,14.862,0,0,1,126.23,262.8Zm234.709-2.66L347.663,249.07c-6.446,49.055-45.139,89.226-93.761,97.8a115.7,115.7,0,0,1-108.64-40.309L168.408,287.6a84.88,84.88,0,0,0,80.3,29.8c36.753-6.48,65.683-37.351,69.538-74.552l-20.428,12.59-15.7-25.47,42.221-26.022a14.965,14.965,0,0,1,17.43,1.246L380.1,237.164Z" transform="translate(0)" fill="#fff"/>
</svg>
