<svg xmlns="http://www.w3.org/2000/svg" width="81" height="81" viewBox="0 0 81 81">
  <path id="ledger" d="M80.592,23.855H59.645V2.908ZM56.82,29.506a2.846,2.846,0,0,1-2.826-2.826V1.25H26.68A10.355,10.355,0,0,0,16.32,11.61V24.344A32.946,32.946,0,0,1,46.987,82.25h24.9A10.355,10.355,0,0,0,82.25,71.89V29.506Zm-.942,25.43A27.314,27.314,0,1,1,28.564,27.622,27.334,27.334,0,0,1,55.878,54.936ZM38.585,60.964l-7.2-7.2V43.634a2.826,2.826,0,1,0-5.651,0v11.3a2.823,2.823,0,0,0,.829,2l8.025,8.025a2.82,2.82,0,0,0,3.993,0A2.843,2.843,0,0,0,38.585,60.964Z" transform="translate(-1.25 -1.25)" fill="#fff"/>
</svg>
