<svg id="Layer_2" data-name="Layer 2" xmlns="http://www.w3.org/2000/svg" width="512" height="512" viewBox="0 0 512 512">
  <g id="Document_File_Format" data-name="Document File Format">
    <g id="LOG">
      <g id="File">
        <path id="Path_1" data-name="Path 1" d="M456,147v73H56V25A25,25,0,0,1,81,0H309V127a20,20,0,0,0,20,20Z" fill="#fff"/>
        <path id="Path_2" data-name="Path 2" d="M56,460H456v27a25,25,0,0,1-25,25H81a25,25,0,0,1-25-25Z" fill="#fff"/>
        <path id="Path_3" data-name="Path 3" d="M456,126.96H329.04V0Z" fill="#fff"/>
        <path id="Path_4" data-name="Path 4" d="M252.09,300.48a11.84,11.84,0,0,0-2.89-6q-2.205-2.385-7-2.38-4.42,0-6.63,2.38a11.84,11.84,0,0,0-2.89,6,42.44,42.44,0,0,0-.68,7.73v66.3a48.163,48.163,0,0,0,.6,7.65,11.66,11.66,0,0,0,2.72,6.12c1.41,1.59,3.71,2.38,6.88,2.38s5.5-.79,7-2.38a11.91,11.91,0,0,0,2.89-6.12,42.93,42.93,0,0,0,.68-7.65v-66.3a42.44,42.44,0,0,0-.68-7.73Zm0,0a11.84,11.84,0,0,0-2.89-6q-2.205-2.385-7-2.38-4.42,0-6.63,2.38a11.84,11.84,0,0,0-2.89,6,42.44,42.44,0,0,0-.68,7.73v66.3a48.163,48.163,0,0,0,.6,7.65,11.66,11.66,0,0,0,2.72,6.12c1.41,1.59,3.71,2.38,6.88,2.38s5.5-.79,7-2.38a11.91,11.91,0,0,0,2.89-6.12,42.93,42.93,0,0,0,.68-7.65v-66.3a42.44,42.44,0,0,0-.68-7.73ZM487,240H25A25,25,0,0,0,0,265V415a25,25,0,0,0,25,25H487a25,25,0,0,0,25-25V265a25,25,0,0,0-25-25ZM191.74,410.21H129.69V272.51h30.43V389.64h31.62Zm92.14-43.35q0,14.11-3.91,24.31a30.34,30.34,0,0,1-13,15.64q-9.11,5.44-24.74,5.44-15.47,0-24.48-5.44a30.43,30.43,0,0,1-12.92-15.64q-3.92-10.2-3.91-24.31V315.69q0-14.28,3.91-24.31A30,30,0,0,1,217.75,276q9-5.36,24.48-5.36,15.65,0,24.74,5.36a30,30,0,0,1,13,15.38q3.91,10,3.91,24.31Zm98.43,43.35H362.25l-1.7-11.39a24.75,24.75,0,0,1-8,9.61q-5.26,3.82-14.28,3.82-14.28,0-22.52-5.95A32.09,32.09,0,0,1,304,389.56a80.921,80.921,0,0,1-3.49-24.91V318.41q0-14.62,3.74-25.33a31.36,31.36,0,0,1,12.84-16.57q9.09-5.86,24.73-5.87,15.3,0,24.06,5.1a28.77,28.77,0,0,1,12.49,14.11,54.77,54.77,0,0,1,3.74,21.08v8.84H352.39V308.55a52.851,52.851,0,0,0-.59-8.16,11.31,11.31,0,0,0-2.72-6q-2.13-2.3-6.89-2.3-4.94,0-7.14,2.64a12.9,12.9,0,0,0-2.8,6.54,53.83,53.83,0,0,0-.6,8.16v63.75a37.318,37.318,0,0,0,.94,8.59,13.09,13.09,0,0,0,3.4,6.46q2.46,2.46,7.05,2.46,4.75,0,7.31-2.55a13.92,13.92,0,0,0,3.57-6.63,35.642,35.642,0,0,0,1-8.67V356.66H342.53V338.81h39.78ZM249.2,294.44q-2.205-2.385-7-2.38-4.42,0-6.63,2.38a11.84,11.84,0,0,0-2.89,6,42.436,42.436,0,0,0-.68,7.73v66.3a48.163,48.163,0,0,0,.6,7.65,11.66,11.66,0,0,0,2.72,6.12c1.41,1.59,3.71,2.38,6.88,2.38s5.5-.79,7-2.38a11.91,11.91,0,0,0,2.89-6.12,42.932,42.932,0,0,0,.68-7.65v-66.3a42.439,42.439,0,0,0-.68-7.73,11.84,11.84,0,0,0-2.89-6Z" fill="#fff"/>
      </g>
    </g>
  </g>
</svg>
