<svg xmlns="http://www.w3.org/2000/svg" width="517.455" height="517.455" viewBox="0 0 517.455 517.455">
  <g id="masterconfiguration" transform="translate(0)">
    <path id="Path_1" data-name="Path 1" d="M343.237,452H171.426A40.427,40.427,0,0,0,131,492.426v5.053a15.16,15.16,0,0,0,15.16,15.16H368.5a15.16,15.16,0,0,0,15.16-15.16v-5.053A40.427,40.427,0,0,0,343.237,452Z" transform="translate(1.396 4.815)" fill="#fffcfc"/>
    <path id="Path_2" data-name="Path 2" d="M0,335.053a55.649,55.649,0,0,0,55.586,55.586H178.144L169.16,422.98H348.3l-8.984-32.341H461.869a55.649,55.649,0,0,0,55.586-55.586V330H0Z" transform="translate(0 3.516)" fill="#fffcfc"/>
    <path id="Path_3" data-name="Path 3" d="M346.479,105a45.479,45.479,0,1,0,45.479,45.479A45.531,45.531,0,0,0,346.479,105Zm0,60.639a15.16,15.16,0,1,1,15.16-15.16A15.16,15.16,0,0,1,346.479,165.639Z" transform="translate(3.207 1.119)" fill="#fffcfc"/>
    <path id="Path_4" data-name="Path 4" d="M461.869,0H55.586A55.649,55.649,0,0,0,0,55.586V303.2H517.455V55.586A55.649,55.649,0,0,0,461.869,0ZM198.088,242.557h-75.8a15.16,15.16,0,1,1-30.32,0H76.81a15.16,15.16,0,1,1,0-30.32h15.16a15.16,15.16,0,1,1,30.32,0h75.8a15.16,15.16,0,1,1,0,30.32Zm0-75.8h-15.16a15.16,15.16,0,0,1-30.32,0H76.81a15.16,15.16,0,0,1,0-30.32h75.8a15.16,15.16,0,0,1,30.32,0h15.16a15.16,15.16,0,1,1,0,30.32Zm0-75.8h-75.8a15.16,15.16,0,1,1-30.32,0H76.81a15.16,15.16,0,0,1,0-30.32h15.16a15.16,15.16,0,1,1,30.32,0h75.8a15.16,15.16,0,1,1,0,30.32ZM455.8,151.6a15.16,15.16,0,0,1-15.16,15.16H423.96A75.388,75.388,0,0,1,412.9,193.368L424.724,205.2a15.16,15.16,0,0,1-21.439,21.439l-11.829-11.829a75.346,75.346,0,0,1-26.609,11.065v16.685a15.16,15.16,0,1,1-30.32,0V225.871a75.365,75.365,0,0,1-26.609-11.065l-11.829,11.829A15.16,15.16,0,1,1,274.65,205.2l11.829-11.829a75.361,75.361,0,0,1-11.065-26.611H258.727a15.16,15.16,0,0,1,0-30.32h16.685a75.388,75.388,0,0,1,11.065-26.611L274.648,98a15.16,15.16,0,0,1,21.439-21.439l11.829,11.829a75.346,75.346,0,0,1,26.609-11.065V60.639a15.16,15.16,0,0,1,30.32,0V77.325A75.365,75.365,0,0,1,391.454,88.39l11.829-11.829A15.16,15.16,0,1,1,424.722,98l-11.829,11.829a75.344,75.344,0,0,1,11.065,26.611h16.687A15.159,15.159,0,0,1,455.8,151.6Z" transform="translate(0)" fill="#fffcfc"/>
  </g>
</svg>
