<svg xmlns="http://www.w3.org/2000/svg" width="512" height="484.32" viewBox="0 0 512 484.32">
  <path id="masterkyc" d="M394.19,489.91a8.258,8.258,0,0,1-8.25,8.25H126.09a8.25,8.25,0,0,1,0-16.5h57.12l14.2-43.68H314.62l14.17,43.68h57.15A8.265,8.265,0,0,1,394.19,489.91ZM512,46.26V397.3a24.211,24.211,0,0,1-24.15,24.15H24.15A24.216,24.216,0,0,1,0,397.31V46.26A32.5,32.5,0,0,1,32.42,13.84H479.6A32.469,32.469,0,0,1,512,46.26ZM273.72,381.15A17.705,17.705,0,1,0,256,398.84,17.767,17.767,0,0,0,273.72,381.15ZM495.5,46.26a15.979,15.979,0,0,0-15.91-15.91H32.43A15.979,15.979,0,0,0,16.52,46.26V340.81H495.5ZM197.44,178.95a71.645,71.645,0,0,1-112.14.01,67.739,67.739,0,0,0-23.9,51.56v41.47a11.72,11.72,0,0,0,11.68,11.68H209.65a11.713,11.713,0,0,0,11.68-11.68V230.52a67.8,67.8,0,0,0-23.89-51.57ZM141.37,189.5a55.13,55.13,0,1,0-55.13-55.13A55.242,55.242,0,0,0,141.37,189.5ZM442.35,92.41H283.52a8.25,8.25,0,0,0,0,16.5H442.35a8.25,8.25,0,1,0,0-16.5Zm0,80.79H283.52a8.265,8.265,0,0,0,0,16.53H442.35a8.265,8.265,0,0,0,0-16.53Zm0,80.79H283.52a8.265,8.265,0,0,0,0,16.53H442.35a8.265,8.265,0,0,0,0-16.53Z" transform="translate(0 -13.84)" fill="#fff"/>
</svg>
