<svg id="Merchant_Management" data-name="Merchant Management" xmlns="http://www.w3.org/2000/svg" width="512" height="512" viewBox="0 0 512 512">
  <path id="Path_1" data-name="Path 1" d="M159.6,175.667A87.833,87.833,0,1,0,71.767,87.833,87.933,87.933,0,0,0,159.6,175.667Z" fill="#fff"/>
  <path id="Path_2" data-name="Path 2" d="M336.333,271H385.6v34.27H239.93a15,15,0,0,0-15,15V385.6H479.87V320.27a15,15,0,0,0-15-15H415.6V271h49.267a15,15,0,0,0,15-15V191.733a15,15,0,0,0-15-15H336.333a15,15,0,0,0-15,15V256a15,15,0,0,0,15,15Z" fill="#fff"/>
  <path id="Path_3" data-name="Path 3" d="M194.93,320.27a45.048,45.048,0,0,1,45-45h37.9a120.152,120.152,0,0,0-118.91-99.6c-66.2.36-119.29,55.06-119.29,121.27V385.6h155.3Z" fill="#fff"/>
  <path id="Path_4" data-name="Path 4" d="M497,415.6H15a15,15,0,0,0-15,15V497a15,15,0,0,0,15,15H497a15,15,0,0,0,15-15V430.6A15,15,0,0,0,497,415.6Z" fill="#fff"/>
</svg>
