<svg xmlns="http://www.w3.org/2000/svg" width="464.126" height="484.656" viewBox="0 0 464.126 484.656">
  <g id="merchantonboarding" transform="translate(-10.265)">
    <path id="Path_1" data-name="Path 1" d="M451.074,438.034h-9.837V195.806h-.008a57.8,57.8,0,0,1-33.045-10.585,57.466,57.466,0,0,1-33.276,10.585,56.725,56.725,0,0,1-7.371-.6V375.395a18.625,18.625,0,0,1-18.629,18.62H281.985V342.983l23.6,39.378a14.878,14.878,0,1,0,25.524-15.3L283.675,287.9a14.713,14.713,0,0,0-13.607-7.037c-.357-.033-54.953-.041-55.286-.017a14.755,14.755,0,0,0-13.805,7.054l-47.43,79.167a14.879,14.879,0,1,0,25.525,15.3l23.746-39.631v51.285H135.752a18.623,18.623,0,0,1-18.629-18.62V195.211a56.711,56.711,0,0,1-7.371.6,58.514,58.514,0,0,1-11.361-1.126,57.492,57.492,0,0,1-21.923-9.459A57.778,57.778,0,0,1,43.43,195.806h-.008V438.034H33.585a23.311,23.311,0,0,0,0,46.622H451.077a23.311,23.311,0,1,0,0-46.622Z" fill="#fff"/>
    <path id="Path_2" data-name="Path 2" d="M242.321,197.226c-17.115,0-31.007,15.877-31.007,35.474,0,19.581,13.892,35.473,31.007,35.473s31.015-15.892,31.015-35.473C273.335,213.1,259.451,197.226,242.321,197.226Z" fill="#fff"/>
    <path id="Path_3" data-name="Path 3" d="M33.938,169.553a33.147,33.147,0,0,0,41.25-22.279l1.745-5.832a33.06,33.06,0,0,0,65.306,2.817l.809-4.054a33.092,33.092,0,0,0,29.689,30.57c1.12.11,2.23.158,3.333.158a33.151,33.151,0,0,0,32.943-29.863l.246-2.46a33.078,33.078,0,0,0,66.139,0l.245,2.46a33.153,33.153,0,0,0,32.944,29.863c1.1,0,2.213-.047,3.332-.158a33.084,33.084,0,0,0,29.689-30.57l.809,4.054a33.057,33.057,0,0,0,65.306-2.817l1.745,5.832a33.16,33.16,0,0,0,31.744,23.666,33.512,33.512,0,0,0,9.506-1.387A33.155,33.155,0,0,0,473,128.3L443.076,28.158A39.445,39.445,0,0,0,405.279,0H79.377a39.445,39.445,0,0,0-37.8,28.158L11.659,128.3A33.155,33.155,0,0,0,33.938,169.553Z" fill="#fff"/>
  </g>
</svg>
