<svg xmlns="http://www.w3.org/2000/svg" width="469.345" height="512" viewBox="0 0 469.345 512">
  <g id="notification" transform="translate(0.001)">
    <path id="Path_1" data-name="Path 1" d="M213.344,512a80.126,80.126,0,0,0,78.379-64H134.965a80.133,80.133,0,0,0,78.379,64Zm0,0" fill="#fff"/>
    <path id="Path_2" data-name="Path 2" d="M362.934,255.98c-.086,0-.172.02-.258.02-82.324,0-149.332-66.988-149.332-149.332A148,148,0,0,1,227.618,43.39c-4.7-.445-9.453-.723-14.273-.723A149.331,149.331,0,0,0,64.012,192v59.477a143.043,143.043,0,0,1-50.945,109.5A37.326,37.326,0,0,0,1.332,399.3c4.523,16.7,21.035,27.371,38.359,27.371h347.2c18.176,0,35.309-11.777,39-29.59a37.394,37.394,0,0,0-12.734-36.523c-31.02-26-48.961-64.215-50.219-104.574Zm0,0" fill="#fff"/>
    <path id="Path_3" data-name="Path 3" d="M469.344,106.668A106.666,106.666,0,1,1,362.676,0,106.663,106.663,0,0,1,469.344,106.668Zm0,0" fill="#fff"/>
  </g>
</svg>
