<svg xmlns="http://www.w3.org/2000/svg" width="513" height="358.9" viewBox="0 0 513 358.9">
  <g id="paymentbutton" transform="translate(0 -77.05)">
    <path id="Path_1" data-name="Path 1" d="M168.5,100.05C75.589,100.05,0,175.639,0,268.55c8.471,223.231,328.563,223.17,337,0,0-92.909-75.589-168.5-168.5-168.5Zm50.925,131.431H229c19.881.738,19.866,29.269,0,30h-8.251a71.7,71.7,0,0,1-52.815,57.4L209.318,352.4a15,15,0,1,1-18.881,23.313l-69.92-56.625c-13.119-7.577-7.885-27.9,7.483-27.987h22.255a41.568,41.568,0,0,0,39.756-29.613H127.873c-19.881-.738-19.866-29.269,0-30h59.713A41.551,41.551,0,0,0,150.255,208.1H128c-19.881-.738-19.866-29.269,0-30H229c19.881.738,19.866,29.269,0,30H208.425a71.173,71.173,0,0,1,11,23.384Z" fill="#fff" fill-rule="evenodd"/>
    <path id="Path_2" data-name="Path 2" d="M508,77.05H317a5,5,0,0,0-5,5v25H508a5,5,0,0,0,5-5v-20A5,5,0,0,0,508,77.05Z" fill="#fff" fill-rule="evenodd"/>
    <path id="Path_3" data-name="Path 3" d="M478,167.05a5,5,0,0,0,5-5v-20a5,5,0,0,0-5-5H317.056a199.582,199.582,0,0,1,21.966,30Z" fill="#fff" fill-rule="evenodd"/>
    <path id="Path_4" data-name="Path 4" d="M508,197.05H353.671a196.78,196.78,0,0,1,8.952,30H508a5,5,0,0,0,5-5v-20A5,5,0,0,0,508,197.05Z" fill="#fff" fill-rule="evenodd"/>
    <path id="Path_5" data-name="Path 5" d="M478,287.128a5,5,0,0,0,5-5v-20a5,5,0,0,0-5-5H366.664a197.554,197.554,0,0,1-.54,30Z" fill="#fff" fill-rule="evenodd"/>
    <path id="Path_6" data-name="Path 6" d="M508,317.128H360.978A196.884,196.884,0,0,1,350.8,347.05l157.2.076a5,5,0,0,0,5-5v-20A5,5,0,0,0,508,317.128Z" fill="#fff" fill-rule="evenodd"/>
    <path id="Path_7" data-name="Path 7" d="M478,377.128H334.587a199.955,199.955,0,0,1-24.039,29.922H478a5,5,0,0,0,5-5V382.128A5,5,0,0,0,478,377.128Z" fill="#fff" fill-rule="evenodd"/>
  </g>
</svg>
