<svg xmlns="http://www.w3.org/2000/svg" width="47" height="47" viewBox="0 0 47 47">
  <g id="paymentpage" transform="translate(-0.5 -0.5)">
    <path id="Path_1" data-name="Path 1" d="M45.7,22H39.9a15.089,15.089,0,0,1-1.5,2.8h2.7v1a2.112,2.112,0,0,0,2.1,2.1h1V41.6h-1a2.112,2.112,0,0,0-2.1,2.1v1H6.8v-1a2.112,2.112,0,0,0-2.1-2.1h-1V27.9h1a2.112,2.112,0,0,0,2.1-2.1v-1H9.5A24.371,24.371,0,0,1,8.1,22H2.3A1.793,1.793,0,0,0,.5,23.8V45.7a1.793,1.793,0,0,0,1.8,1.8H45.7a1.793,1.793,0,0,0,1.8-1.8V23.8A1.793,1.793,0,0,0,45.7,22Z" fill="#fff"/>
    <path id="Path_2" data-name="Path 2" d="M5.7,29.8v9.9a4.318,4.318,0,0,1,3,3H39.3a4.318,4.318,0,0,1,3-3V29.8a4.318,4.318,0,0,1-3-3H37A17.915,17.915,0,0,1,29.2,32a6.367,6.367,0,0,1,.7,2.7,5.8,5.8,0,1,1-11.6,0A6.007,6.007,0,0,1,19,32a16.834,16.834,0,0,1-7.8-5.2H8.7a4.149,4.149,0,0,1-3,3ZM37,33.7a1.1,1.1,0,1,1-1.1,1.1A1.11,1.11,0,0,1,37,33.7Zm-26,0a1.1,1.1,0,1,1-1.1,1.1A1.11,1.11,0,0,1,11,33.7Z" fill="#fff"/>
    <path id="Path_3" data-name="Path 3" d="M24,30.8A15.15,15.15,0,1,0,8.9,15.6,15.087,15.087,0,0,0,24,30.8ZM15.5,10.5h14a4.475,4.475,0,0,0-4.2-3.4H15.6v-2h17v2H29.9a6.134,6.134,0,0,1,1.7,3.4h1.1v2H31.6a6.444,6.444,0,0,1-6.3,5.4H21.7l9.1,9.2-1.4,1.4L18.8,17.9H17.5v-2h7.8a4.2,4.2,0,0,0,4.2-3.4h-14Z" fill="#fff"/>
  </g>
</svg>
