<svg xmlns="http://www.w3.org/2000/svg" width="64" height="64" viewBox="0 0 64 64">
  <g id="payout" transform="translate(-2008 -328)">
    <path id="Path_1" data-name="Path 1" d="M2042,384.172V374h-4v10.172l-3-3L2032.17,384l7.83,8,7.83-8-2.83-2.828ZM2008,360v12h12v-2a10,10,0,0,0-10-10Zm16-32v2a14,14,0,0,1-14,14h-2v12h2a14,14,0,0,1,14,14v2h32v-2a14,14,0,0,1,14-14h2V344h-2a14,14,0,0,1-14-14v-2Zm48,44V360h-2a10,10,0,0,0-10,10v2Zm-22-37h-20v4h6a6.014,6.014,0,0,1,5.66,4H2030v4h11.66a6,6,0,0,1-5.66,4h-6v3.88l12.65,11.594,2.7-2.948-9.3-8.527a9.995,9.995,0,0,0,9.75-8h4.2v-4h-4.2a10,10,0,0,0-1.8-4h6Zm22-7h-12v2a10,10,0,0,0,10,10h2Zm-52,0h-12v12h2a10,10,0,0,0,10-10Z" fill="#fff" fill-rule="evenodd"/>
  </g>
</svg>
