<svg xmlns="http://www.w3.org/2000/svg" width="406" height="512" viewBox="0 0 406 512">
  <g id="reports" transform="translate(-53)">
    <path id="Path_1" data-name="Path 1" d="M414,28.055H394.008a110.7,110.7,0,0,1,13.492,53.1,45.1,45.1,0,0,1-45,45.088h-213a45.1,45.1,0,0,1-45-45.088,110.705,110.705,0,0,1,13.492-53.1H98A45.1,45.1,0,0,0,53,73.143V466.912A45.1,45.1,0,0,0,98,512H414a45.1,45.1,0,0,0,45-45.088V73.143A45.1,45.1,0,0,0,414,28.055ZM203.272,426.106l-32.666,32.73a14.979,14.979,0,0,1-21.213,0l-16-16.031a15.014,15.014,0,0,1,21.213-21.254l5.394,5.4,22.06-22.1a15.014,15.014,0,1,1,21.212,21.253Zm0-86.169-32.666,32.73a14.979,14.979,0,0,1-21.213,0l-16-16.031a15.014,15.014,0,1,1,21.213-21.254l5.394,5.4,22.06-22.1a15.014,15.014,0,1,1,21.212,21.253Zm-28.666-60.785A15.014,15.014,0,1,1,153.393,257.9l54-54.106a14.978,14.978,0,0,1,21.213,0L274,249.273l35.787-35.857H308a15.029,15.029,0,0,1,0-30.058c41.306,0,44.827-1.771,50.474,6.686,3.444,5.158,2.526,6.9,2.526,46.418a15,15,0,1,1-30,0v-1.791l-46.394,46.484a14.979,14.979,0,0,1-21.213,0L218,235.674ZM367,446.873H246a15.029,15.029,0,0,1,0-30.058H367a15.029,15.029,0,0,1,0,30.058Zm0-86.169H246a15.029,15.029,0,0,1,0-30.058H367a15.029,15.029,0,0,1,0,30.058Z" fill="#fff"/>
    <path id="Path_2" data-name="Path 2" d="M296.5,0h-81a81.171,81.171,0,0,0-81,81.159,15.015,15.015,0,0,0,15,15.029h213a15.015,15.015,0,0,0,15-15.029A81.171,81.171,0,0,0,296.5,0Z" fill="#fff"/>
  </g>
</svg>
