<svg xmlns="http://www.w3.org/2000/svg" width="495.622" height="358.309" viewBox="0 0 495.622 358.309">
  <g id="settlement" transform="translate(0 -68.657)">
    <path id="Path_1" data-name="Path 1" d="M495.622,113.089v150.03s-32.11,6.326-38.725,7.158c-6.594.83-27.316,7.521-42.334-6.914-23.16-22.2-105.447-104.03-105.447-104.03s-14.188-13.922-36.969-1.89c-20.912,11.022-51.911,27.175-64.859,33.465-24.477,13.028-44.764-7.642-44.764-23.387,0-12.213,7.621-20.5,18.515-26.6,29.524-17.9,91.752-52.827,117.67-66.6,15.754-8.379,27.105-9.1,48.734,9.124,26.638,22.4,50.344,42.824,50.344,42.824s7.732,6.453,20.063,3.854C448.13,123.725,495.622,113.089,495.622,113.089ZM168.1,367.3c3.985-10.238,2.653-21.689-4.987-29.545-6.865-7.027-16.888-8.879-26.445-6.689,2.673-9.479,1.2-19.568-5.705-26.688-6.886-7.009-16.89-8.9-26.446-6.688,2.653-9.465,1.181-19.553-5.725-26.652-10.814-11.092-29.519-10.616-41.807,1.1-12.223,11.729-20.053,32.979-9.144,45.487,10.891,12.445,23.405,4.873,32.945,2.7-2.654,9.465-10.606,18.269-.813,30.658s23.4,4.875,32.954,2.721c-2.663,9.429-10.268,19.117-.851,30.6,9.5,11.522,25.065,5.383,35.344,2.19-3.967,10.2-12.458,21.193-1.549,33.513,10.892,12.409,36.063,6.668,48.358-5.063,12.262-11.729,13.439-30.318,2.654-41.445C189.435,365.865,178.335,364.089,168.1,367.3Zm224.344-78.054c-88.88-88.881-47.075-47.058-94.906-94.992,0,0-14.375-14.311-33.321-6-13.3,5.828-30.423,13.771-43.307,19.835-14.158,7.424-24.347,9.722-29.131,9.69a49.416,49.416,0,0,1-26.114-91.468c19.75-13.667,65.21-37.847,65.21-37.847s-13.849-17.549-44.187-17.549-93.695,41.512-93.695,41.512-17.976,11.514-43.6,1.143L0,96.373V268.05s14.1,4.082,26.775,9.258a56.453,56.453,0,0,1,13.886-21.924c21.023-20.024,55.869-20.232,75-.537a47.322,47.322,0,0,1,11.835,21.024,47.894,47.894,0,0,1,20.3,12.373,47.226,47.226,0,0,1,11.854,20.984,48.286,48.286,0,0,1,32.832,35.383A48.587,48.587,0,0,1,213.652,357.3c11.495,11.807,15.575,27.826,13.1,43.278a.077.077,0,0,1,.076.035c.188.246,7.122,7.976,11.446,12.336a21.787,21.787,0,0,0,30.811-30.811c-.3-.3-30.572-31.963-28.136-34.418,2.418-2.438,40.981,37.688,41.7,38.422a21.773,21.773,0,0,0,30.792-30.791c-.416-.4-2.152-2.059-2.8-2.721,0,0-38.234-34.06-35.324-36.97,2.946-2.928,50.438,41.392,50.515,41.392a21.5,21.5,0,0,0,30.978-29.732c-.15-.453-36.194-38.121-33.381-40.955,2.854-2.871,38.519,33.853,38.594,33.929a21.787,21.787,0,1,0,30.792-30.83C392.706,289.4,392.555,289.32,392.442,289.246Z" fill="#fff"/>
  </g>
</svg>
