<svg xmlns="http://www.w3.org/2000/svg" width="56.142" height="56" viewBox="0 0 56.142 56">
  <g id="staffmembers" transform="translate(-3.929 -4)">
    <circle id="Ellipse_1" data-name="Ellipse 1" cx="6.208" cy="6.208" r="6.208" transform="translate(11.257 30.986)" fill="#fff"/>
    <path id="Path_1" data-name="Path 1" d="M31,56.916A11.528,11.528,0,0,0,19.485,45.4H15.444A11.528,11.528,0,0,0,3.929,56.916V60H31Z" fill="#fff"/>
    <circle id="Ellipse_2" data-name="Ellipse 2" cx="6.208" cy="6.208" r="6.208" transform="translate(40.327 30.986)" fill="#fff"/>
    <path id="Path_2" data-name="Path 2" d="M32,51.834a13.556,13.556,0,0,1,9.59-8.105,8.191,8.191,0,0,1,3.9-14.668A11.524,11.524,0,0,0,34.025,18.416h-4.05A11.518,11.518,0,0,0,18.509,29.06a8.191,8.191,0,0,1,3.9,14.669A13.556,13.556,0,0,1,32,51.834Z" fill="#fff"/>
    <path id="Path_3" data-name="Path 3" d="M60.071,56.916A11.528,11.528,0,0,0,48.556,45.4H44.515A11.528,11.528,0,0,0,33,56.916V60H60.071V56.916Z" fill="#fff"/>
    <circle id="Ellipse_3" data-name="Ellipse 3" cx="6.208" cy="6.208" r="6.208" transform="translate(25.792 4)" fill="#fff"/>
  </g>
</svg>
