<svg id="Layer_2_00000094579876740253252840000003382329216679810749_" xmlns="http://www.w3.org/2000/svg" width="511.985" height="512" viewBox="0 0 511.985 512">
  <g id="user_setting">
    <path id="Path_1" data-name="Path 1" d="M317.9,489.7c-1.7-1-3.5-2-5.2-3l-10.5,4.5a44.244,44.244,0,0,1-55.7-18.6l-18-31.2a44.377,44.377,0,0,1,11.8-57.6l9.1-6.8v-6l-9.1-6.8a44.487,44.487,0,0,1-11.8-57.6l18-31.2a44.022,44.022,0,0,1,24-19.7,189.15,189.15,0,0,0-79.4-17.2C85.6,238.4,0,324,0,429.5v55.4A27.058,27.058,0,0,0,27.1,512H322a45.566,45.566,0,0,1-2.8-11Z" fill="#fff"/>
    <circle id="Ellipse_1" data-name="Ellipse 1" cx="104.9" cy="104.9" r="104.9" transform="translate(86.2 0)" fill="#fff"/>
    <path id="Path_2" data-name="Path 2" d="M505.5,406.2,484,390.1a101.657,101.657,0,0,0,0-32.1l21.5-16.1a16.3,16.3,0,0,0,4.3-21.2l-18-31.2a16.228,16.228,0,0,0-20.5-6.8l-24.7,10.5a104.51,104.51,0,0,0-27.8-16.1l-3.2-26.7a16.236,16.236,0,0,0-16.2-14.3H363.3a16.394,16.394,0,0,0-16.2,14.3l-3.2,26.7a102.97,102.97,0,0,0-27.8,16.1l-24.7-10.5a16.334,16.334,0,0,0-20.5,6.8l-18,31.2a16.349,16.349,0,0,0,4.3,21.2L278.7,358a101.657,101.657,0,0,0,0,32.1l-21.5,16.1a16.349,16.349,0,0,0-4.3,21.2l18,31.2a16.376,16.376,0,0,0,20.5,6.9l24.7-10.6A104.51,104.51,0,0,0,343.9,471l3.2,26.7A16.236,16.236,0,0,0,363.3,512h36.1a16.394,16.394,0,0,0,16.2-14.3l3.2-26.7a104.509,104.509,0,0,0,27.8-16.1l24.7,10.5a16.27,16.27,0,0,0,20.5-6.9l18-31.2a16.242,16.242,0,0,0-4.3-21.1ZM381.3,413a39,39,0,1,1,39-39A39.05,39.05,0,0,1,381.3,413Z" fill="#fff"/>
  </g>
</svg>
