<svg xmlns="http://www.w3.org/2000/svg" width="30" height="21.996" viewBox="0 0 30 21.996">
  <g id="Layer_24" data-name="Layer 24" transform="translate(-1 -5.004)">
    <path id="Path_1" data-name="Path 1" d="M31,12a1,1,0,0,1-.29.71l-6,6A1,1,0,0,1,23,18V15H14a1,1,0,0,1-1-1V10a1,1,0,0,1,1-1h9V6a1,1,0,0,1,1.71-.7l6,6A1,1,0,0,1,31,12ZM18,17H9V14a1.006,1.006,0,0,0-1.71-.71l-6,6a1.014,1.014,0,0,0,0,1.42l6,6A1,1,0,0,0,8,27a.84.84,0,0,0,.38-.08A1,1,0,0,0,9,26V23h9a1,1,0,0,0,1-1V18A1,1,0,0,0,18,17Z" fill="#fff"/>
  </g>
</svg>
