<svg xmlns="http://www.w3.org/2000/svg" width="17" height="17" viewBox="0 0 17 17">
  <g id="money-currency" transform="translate(-1848 -248)">
    <path id="Path_122" data-name="Path 122" d="M1863.938,263.938v-5.445l-.991,1.717a7.438,7.438,0,0,1-13.884-3.71v-.531H1848v.531a8.5,8.5,0,0,0,14.875,5.62v1.817Zm-7.437-14.078a6.641,6.641,0,1,0,6.641,6.641A6.643,6.643,0,0,0,1856.5,249.859Zm2.656,2.922h-5.312v1.063h1.594a1.6,1.6,0,0,1,1.5,1.063h-3.1v1.063h3.1a1.6,1.6,0,0,1-1.5,1.063h-1.594v1.031l3.36,3.08.717-.783-2.47-2.265a2.655,2.655,0,0,0,2.59-2.125h1.116v-1.062h-1.116a2.657,2.657,0,0,0-.478-1.062h1.594Zm-10.094-3.719v5.445l.991-1.717a7.438,7.438,0,0,1,13.884,3.71v.531H1865V256.5a8.5,8.5,0,0,0-14.875-5.62v-1.817Z" fill="#ae4376" fill-rule="evenodd"/>
  </g>
</svg>
