<svg xmlns="http://www.w3.org/2000/svg" width="27.099" height="27.1" viewBox="0 0 27.099 27.1">
  <g id="_icons" transform="translate(-3 -3)" opacity="0.4">
    <g id="Group_8" data-name="Group 8" transform="translate(3 3)">
      <g id="Group_7" data-name="Group 7">
        <path id="Path_24" data-name="Path 24" d="M16.55,3A13.55,13.55,0,1,0,30.1,16.55,13.493,13.493,0,0,0,16.55,3Zm5.57,17.012a1.455,1.455,0,0,1,0,2.108,1.455,1.455,0,0,1-2.108,0L16.55,18.657,13.087,22.12a1.455,1.455,0,0,1-2.108,0,1.455,1.455,0,0,1,0-2.108l3.463-3.463-3.463-3.463a1.49,1.49,0,0,1,2.108-2.108l3.463,3.463,3.463-3.463a1.49,1.49,0,0,1,2.108,2.108L18.657,16.55Z" transform="translate(-3 -3)" fill="#fff"/>
      </g>
    </g>
  </g>
</svg>
