<svg id="help" xmlns="http://www.w3.org/2000/svg" width="19.975" height="19.975" viewBox="0 0 19.975 19.975">
  <path id="Path_52" data-name="Path 52" d="M210.9,204.447a6.476,6.476,0,0,0-3.552-5.767,8.807,8.807,0,0,1-8.672,8.672,6.459,6.459,0,0,0,9.052,2.654l3.143.869-.869-3.143a6.433,6.433,0,0,0,.9-3.285Zm0,0" transform="translate(-190.929 -190.929)" fill="#ae4376"/>
  <path id="Path_53" data-name="Path 53" d="M15.254,7.627A7.627,7.627,0,1,0,1.058,11.5L.028,15.226,3.75,14.2a7.629,7.629,0,0,0,11.5-6.569Zm-8.8-1.775H5.286a2.341,2.341,0,1,1,3.92,1.727l-.994.91V9.4H7.042V7.974L8.416,6.716A1.158,1.158,0,0,0,8.8,5.852a1.17,1.17,0,0,0-2.341,0Zm.585,4.721h1.17v1.17H7.042Zm0,0" fill="#ae4376"/>
</svg>
