<svg xmlns="http://www.w3.org/2000/svg" width="39.997" height="39.998" viewBox="0 0 39.997 39.998">
  <g id="link" transform="translate(0.994 1.001)">
    <g id="Group_247" data-name="Group 247" transform="translate(-0.993 -1)">
      <g id="Group_246" data-name="Group 246" transform="translate(0 0)">
        <path id="Path_165" data-name="Path 165" d="M15.588,193.568l-4.713,4.713A5,5,0,0,1,3.8,191.212l9.428-9.428a5,5,0,0,1,7.069,0,1.667,1.667,0,1,0,2.357-2.357,8.331,8.331,0,0,0-11.783,0l-9.428,9.428a8.332,8.332,0,0,0,11.785,11.783l4.713-4.713a1.667,1.667,0,1,0-2.357-2.357Z" transform="translate(0.993 -163.082)" fill="#010216"/>
        <path id="Path_166" data-name="Path 166" d="M212.576,1.44a8.333,8.333,0,0,0-11.785,0l-5.655,5.655a1.667,1.667,0,1,0,2.357,2.357L203.148,3.8a5,5,0,0,1,7.071,7.069L199.85,21.236a5,5,0,0,1-7.069,0,1.667,1.667,0,1,0-2.357,2.357,8.331,8.331,0,0,0,11.783,0l10.369-10.369A8.331,8.331,0,0,0,212.576,1.44Z" transform="translate(-175.02 1)" fill="#010216"/>
      </g>
    </g>
  </g>
</svg>
