<svg xmlns="http://www.w3.org/2000/svg" width="16.487" height="20.164" viewBox="0 0 16.487 20.164">
  <g id="Group_263" data-name="Group 263" transform="translate(-82.81 -268.418)">
    <path id="Path_35" data-name="Path 35" d="M207.539,95.054V92.218a.333.333,0,0,1,.347-.33h.921l-1.592-1.751-1.592,1.751h.82a.333.333,0,0,1,.347.33v2.3c.231.166.52.345.751.536Zm0,0" transform="translate(-110.939 178.374)" fill="#fff"/>
    <path id="Path_36" data-name="Path 36" d="M26.777,94.594V92.218a.333.333,0,0,1,.347-.33h.935l-1.592-1.751-1.592,1.751h.8a.333.333,0,0,1,.347.33v2.929a5.312,5.312,0,0,1,.751-.553Zm0,0" transform="translate(59.366 178.282)" fill="#fff"/>
    <path id="Path_37" data-name="Path 37" d="M8.346,153.781a8.244,8.244,0,1,0,8.244,8.244,8.253,8.253,0,0,0-8.244-8.244Zm0,15.224a6.98,6.98,0,1,1,6.98-6.98A6.98,6.98,0,0,1,8.346,169Zm0,0" transform="translate(82.708 118.314)" fill="#fff"/>
    <path id="Path_38" data-name="Path 38" d="M40.26,187.652a6.287,6.287,0,1,0,6.287,6.287A6.287,6.287,0,0,0,40.26,187.652Zm1.43,4.205h1.143a.347.347,0,1,1,0,.693H41.69A2.576,2.576,0,0,1,39.16,194.8h-.6l3.047,2.861a.329.329,0,0,1,.014.475.348.348,0,0,1-.49.013l-3.681-3.476a.325.325,0,0,1-.084-.366.33.33,0,0,1,.322-.2h1.473a1.9,1.9,0,0,0,1.829-1.56h-3.3a.347.347,0,1,1,0-.693h3.3a1.848,1.848,0,0,0-1.829-1.5H37.687a.347.347,0,0,1,0-.693h5.147a.347.347,0,0,1,0,.693H40.906A2.6,2.6,0,0,1,41.69,191.857Zm0,0" transform="translate(50.794 86.4)" fill="#fff"/>
  </g>
</svg>
