<svg xmlns="http://www.w3.org/2000/svg" xmlns:xlink="http://www.w3.org/1999/xlink" width="409.668" height="231.751" viewBox="0 0 409.668 231.751">
  <defs>
    <linearGradient id="linear-gradient" x1="0.958" y1="0.413" x2="0.106" y2="0.373" gradientUnits="objectBoundingBox">
      <stop offset="0" stop-color="#ee5635"/>
      <stop offset="0.452" stop-color="#f5502b"/>
      <stop offset="1" stop-color="#cc2500"/>
    </linearGradient>
    <clipPath id="clip-path">
      <rect id="Rectangle_42" data-name="Rectangle 42" width="409.668" height="231.751" fill="none"/>
    </clipPath>
    <clipPath id="clip-path-2">
      <rect id="Rectangle_41" data-name="Rectangle 41" width="244.268" height="231.373" fill="url(#linear-gradient)"/>
    </clipPath>
    <clipPath id="clip-path-5">
      <path id="Path_88" data-name="Path 88" d="M244.268,0H21.4A21.4,21.4,0,0,0,0,21.4V209.972a21.4,21.4,0,0,0,21.4,21.4h90.4Z" fill="url(#linear-gradient)"/>
    </clipPath>
  </defs>
  <g id="Group_242" data-name="Group 242" transform="translate(-648.674 -165.26)">
    <g id="Group_152" data-name="Group 152" transform="translate(648.674 165.26)">
      <g id="Group_139" data-name="Group 139" transform="translate(0 0)">
        <g id="Group_137" data-name="Group 137">
          <g id="Group_136" data-name="Group 136" clip-path="url(#clip-path)">
            <path id="Path_89" data-name="Path 89" d="M386.863,231.751H22.8c-12.594,0-22.8-9.6-22.8-21.436V21.436C0,9.6,10.21,0,22.8,0H386.864c12.594,0,22.8,9.6,22.8,21.436V210.315c0,11.839-10.21,21.436-22.8,21.436" fill="#0074c7"/>
          </g>
        </g>
        <g id="Group_138" data-name="Group 138" transform="translate(0 0.378)" opacity="0.68" style="mix-blend-mode: color-dodge;isolation: isolate">
          <g id="Group_134" data-name="Group 134" clip-path="url(#clip-path-2)">
            <g id="Group_133" data-name="Group 133">
              <g id="Group_132" data-name="Group 132" clip-path="url(#clip-path-2)">
                <g id="Group_131" data-name="Group 131" opacity="0.5" style="mix-blend-mode: screen;isolation: isolate">
                  <g id="Group_130" data-name="Group 130">
                    <g id="Group_129" data-name="Group 129" clip-path="url(#clip-path-2)">
                      <g id="Group_128" data-name="Group 128">
                        <g id="Group_127" data-name="Group 127" clip-path="url(#clip-path-5)">
                          <rect id="Rectangle_38" data-name="Rectangle 38" width="247.709" height="259.681" transform="translate(-15.959 230.267) rotate(-86.035)" fill="url(#linear-gradient)"/>
                        </g>
                      </g>
                    </g>
                  </g>
                </g>
              </g>
            </g>
          </g>
        </g>
      </g>
    </g>
  </g>
</svg>
