<svg xmlns="http://www.w3.org/2000/svg" width="33.567" height="23.484" viewBox="0 0 33.567 23.484">
  <g id="rupee_6_" data-name="rupee (6)" transform="translate(0 -77.05)" opacity="0.5">
    <path id="Path_17" data-name="Path 17" d="M11.025,100.05A11.038,11.038,0,0,0,0,111.075c.554,14.607,21.5,14.6,22.051,0A11.038,11.038,0,0,0,11.025,100.05Zm3.332,8.6h.627a.982.982,0,0,1,0,1.963h-.54a4.692,4.692,0,0,1-3.456,3.756l2.708,2.193a.981.981,0,1,1-1.235,1.525l-4.575-3.705a.983.983,0,0,1,.49-1.831H9.832a2.72,2.72,0,0,0,2.6-1.938H8.367a.982.982,0,0,1,0-1.963h3.907a2.719,2.719,0,0,0-2.443-1.53H8.375a.982.982,0,0,1,0-1.963h6.609a.982.982,0,0,1,0,1.963H13.638A4.657,4.657,0,0,1,14.358,108.65Z" transform="translate(0 -21.495)" fill="#fff" fill-rule="evenodd"/>
    <path id="Path_18" data-name="Path 18" d="M324.825,77.05h-12.5a.327.327,0,0,0-.327.327v1.636h12.825a.327.327,0,0,0,.327-.327V77.377A.327.327,0,0,0,324.825,77.05Z" transform="translate(-291.585)" fill="#fff" fill-rule="evenodd"/>
    <path id="Path_19" data-name="Path 19" d="M327.587,139.013a.327.327,0,0,0,.327-.327v-1.309a.327.327,0,0,0-.327-.327H317.056a13.067,13.067,0,0,1,1.437,1.963Z" transform="translate(-296.31 -56.074)" fill="#fff" fill-rule="evenodd"/>
    <path id="Path_20" data-name="Path 20" d="M363.769,197.05h-10.1a12.869,12.869,0,0,1,.586,1.963h9.512a.327.327,0,0,0,.327-.327v-1.309A.327.327,0,0,0,363.769,197.05Z" transform="translate(-330.529 -112.148)" fill="#fff" fill-rule="evenodd"/>
    <path id="Path_21" data-name="Path 21" d="M373.444,259.091a.327.327,0,0,0,.327-.327v-1.309a.327.327,0,0,0-.327-.327h-7.285a12.934,12.934,0,0,1-.035,1.963Z" transform="translate(-342.167 -168.295)" fill="#fff" fill-rule="evenodd"/>
    <path id="Path_22" data-name="Path 22" d="M361.089,317.128h-9.62a12.87,12.87,0,0,1-.666,1.958l10.286,0a.327.327,0,0,0,.327-.327v-1.309A.327.327,0,0,0,361.089,317.128Z" transform="translate(-327.849 -224.369)" fill="#fff" fill-rule="evenodd"/>
    <path id="Path_23" data-name="Path 23" d="M321.5,377.128h-9.384a13.086,13.086,0,0,1-1.573,1.958H321.5a.327.327,0,0,0,.327-.327v-1.3A.327.327,0,0,0,321.5,377.128Z" transform="translate(-290.228 -280.443)" fill="#fff" fill-rule="evenodd"/>
  </g>
</svg>
