<svg xmlns="http://www.w3.org/2000/svg" width="27.698" height="27.698" viewBox="0 0 27.698 27.698">
  <g id="money-currency" transform="translate(-1848 -248)" opacity="0.5">
    <path id="Path_59" data-name="Path 59" d="M1873.967,273.967V265.1l-1.614,2.8a12.119,12.119,0,0,1-22.622-6.045v-.866H1848v.866a13.847,13.847,0,0,0,24.236,9.157v2.961Zm-12.118-22.938a10.82,10.82,0,1,0,10.82,10.82A10.824,10.824,0,0,0,1861.849,251.029Zm4.328,4.761h-8.656v1.731h2.6a2.6,2.6,0,0,1,2.449,1.731h-5.046v1.731h5.046a2.6,2.6,0,0,1-2.449,1.731h-2.6v1.679l5.475,5.018,1.168-1.276-4.025-3.69a4.326,4.326,0,0,0,4.22-3.462h1.818v-1.731h-1.818a4.33,4.33,0,0,0-.779-1.731h2.6Zm-16.446-6.059V258.6l1.614-2.8a12.119,12.119,0,0,1,22.622,6.045v.866h1.731v-.866a13.847,13.847,0,0,0-24.236-9.157v-2.961Z" transform="translate(0 0)" fill="#fff" fill-rule="evenodd"/>
  </g>
</svg>
