<svg id="Group_149" data-name="Group 149" xmlns="http://www.w3.org/2000/svg" xmlns:xlink="http://www.w3.org/1999/xlink" width="270" height="152.491" viewBox="0 0 270 152.491">
  <defs>
    <linearGradient id="linear-gradient" x1="0.958" y1="0.413" x2="0.106" y2="0.373" gradientUnits="objectBoundingBox">
      <stop offset="0" stop-color="#ee5635"/>
      <stop offset="0.452" stop-color="#f5502b"/>
      <stop offset="1" stop-color="#cc2500"/>
    </linearGradient>
    <clipPath id="clip-path">
      <rect id="Rectangle_45" data-name="Rectangle 45" width="270" height="152.242" fill="none"/>
    </clipPath>
    <clipPath id="clip-path-2">
      <rect id="Rectangle_41" data-name="Rectangle 41" width="160.99" height="152.491" fill="url(#linear-gradient)"/>
    </clipPath>
    <clipPath id="clip-path-5">
      <path id="Path_88" data-name="Path 88" d="M160.99,0H14.1A14.1,14.1,0,0,0,0,14.1V138.386a14.1,14.1,0,0,0,14.1,14.1H73.686Z" fill="url(#linear-gradient)"/>
    </clipPath>
  </defs>
  <g id="Group_147" data-name="Group 147" transform="translate(0 0.249)">
    <g id="Group_146" data-name="Group 146" clip-path="url(#clip-path)">
      <path id="Path_92" data-name="Path 92" d="M254.97,152.242H15.03c-8.3,0-15.03-6.3-15.03-14.082V14.081C0,6.3,6.729,0,15.03,0H254.97C263.271,0,270,6.3,270,14.082V138.16c0,7.777-6.729,14.082-15.03,14.082" fill="#a77a00"/>
    </g>
  </g>
  <g id="Group_148" data-name="Group 148" transform="translate(0 0)" opacity="0.74" style="mix-blend-mode: color-dodge;isolation: isolate">
    <g id="Group_134" data-name="Group 134" clip-path="url(#clip-path-2)">
      <g id="Group_133" data-name="Group 133">
        <g id="Group_132" data-name="Group 132" clip-path="url(#clip-path-2)">
          <g id="Group_131" data-name="Group 131" opacity="0.5" style="mix-blend-mode: screen;isolation: isolate">
            <g id="Group_130" data-name="Group 130">
              <g id="Group_129" data-name="Group 129" clip-path="url(#clip-path-2)">
                <g id="Group_128" data-name="Group 128">
                  <g id="Group_127" data-name="Group 127" clip-path="url(#clip-path-5)">
                    <rect id="Rectangle_38" data-name="Rectangle 38" width="163.257" height="171.148" transform="translate(-10.518 151.762) rotate(-86.035)" fill="url(#linear-gradient)"/>
                  </g>
                </g>
              </g>
            </g>
          </g>
        </g>
      </g>
    </g>
  </g>
</svg>
