<svg xmlns="http://www.w3.org/2000/svg" width="26.565" height="32.489" viewBox="0 0 26.565 32.489">
  <g id="growth" transform="translate(-0.102 -10.59)">
    <path id="Path_35" data-name="Path 35" d="M208.71,90.137v4.57a.536.536,0,0,0,.558.531h1.483l-2.566,2.822-2.565-2.822h1.32a.536.536,0,0,0,.558-.531V91c.372-.267.838-.555,1.21-.863Zm0,0" transform="translate(-186.391 -79.547)" fill="#fff"/>
    <path id="Path_36" data-name="Path 36" d="M27.94,91.028v3.829a.536.536,0,0,0,.558.531h1.507L27.44,98.21l-2.565-2.822h1.3a.536.536,0,0,0,.558-.531v-4.72a8.561,8.561,0,0,0,1.21.892Zm0,0" transform="translate(-22.467 -79.547)" fill="#fff"/>
    <path id="Path_37" data-name="Path 37" d="M13.385,153.781a13.283,13.283,0,1,0,13.283,13.283,13.3,13.3,0,0,0-13.283-13.283Zm0,24.53a11.247,11.247,0,1,1,11.247-11.247,11.247,11.247,0,0,1-11.247,11.247Zm0,0" transform="translate(0 -137.268)" fill="#fff"/>
    <path id="Path_38" data-name="Path 38" d="M44.1,187.652a10.13,10.13,0,1,0,10.13,10.13A10.13,10.13,0,0,0,44.1,187.652Zm2.3,6.776h1.842a.558.558,0,1,1,0,1.117H46.407a4.15,4.15,0,0,1-4.078,3.63h-.969l4.91,4.609a.53.53,0,0,1,.023.765.561.561,0,0,1-.789.021l-5.931-5.6a.524.524,0,0,1-.135-.59.532.532,0,0,1,.519-.321H42.33a3.06,3.06,0,0,0,2.946-2.513H39.957a.558.558,0,1,1,0-1.117h5.319a2.978,2.978,0,0,0-2.946-2.42H39.957a.558.558,0,0,1,0-1.117h8.292a.558.558,0,1,1,0,1.117h-3.1a4.192,4.192,0,0,1,1.263,2.42Zm0,0" transform="translate(-30.718 -167.986)" fill="#fff"/>
  </g>
</svg>
