<svg xmlns="http://www.w3.org/2000/svg" width="11" height="16" viewBox="0 0 11 16">
  <g id="rupee-sign" transform="translate(-7 -4)">
    <path id="Path_160" data-name="Path 160" d="M17,6H8A1,1,0,0,1,8,4h9a.945.945,0,0,1,1,1A.945.945,0,0,1,17,6Z" fill="#fff"/>
    <path id="Path_161" data-name="Path 161" d="M17,10H8A.945.945,0,0,1,7,9,.945.945,0,0,1,8,8h9a.945.945,0,0,1,1,1A.945.945,0,0,1,17,10Z" fill="#fff"/>
    <path id="Path_162" data-name="Path 162" d="M10,14H8a1,1,0,0,1,0-2h2a2.946,2.946,0,0,0,3-3,2.946,2.946,0,0,0-3-3H8A.945.945,0,0,1,7,5,.945.945,0,0,1,8,4h2a4.951,4.951,0,0,1,5,5A4.951,4.951,0,0,1,10,14Z" fill="#fff"/>
    <path id="Path_163" data-name="Path 163" d="M14,20a.908.908,0,0,1-.7-.3l-6-6a.99.99,0,0,1,1.4-1.4l6,6a.967.967,0,0,1,0,1.4A.908.908,0,0,1,14,20Z" fill="#fff"/>
  </g>
</svg>
