<svg xmlns="http://www.w3.org/2000/svg" width="19.451" height="19.975" viewBox="0 0 19.451 19.975">
  <g id="settings" transform="translate(-6.71)">
    <g id="Group_48" data-name="Group 48" transform="translate(6.71)">
      <path id="Path_44" data-name="Path 44" d="M25.825,12.176l-1.836-1.436a7.229,7.229,0,0,0,.043-.754,7.01,7.01,0,0,0-.043-.754L25.826,7.8a.9.9,0,0,0,.217-1.147l-1.909-3.3a.885.885,0,0,0-1.1-.4l-2.166.87a7.427,7.427,0,0,0-1.3-.755l-.33-2.3A.884.884,0,0,0,18.351,0H14.522a.882.882,0,0,0-.881.759l-.33,2.306a7.657,7.657,0,0,0-1.3.755L9.841,2.948a.9.9,0,0,0-1.1.39L6.833,6.646A.9.9,0,0,0,7.049,7.8L8.885,9.234a6.585,6.585,0,0,0,0,1.507L7.048,12.178a.9.9,0,0,0-.216,1.147l1.909,3.3a.883.883,0,0,0,1.1.4l2.166-.87a7.493,7.493,0,0,0,1.3.755l.33,2.3a.883.883,0,0,0,.882.767h3.828a.882.882,0,0,0,.881-.759l.33-2.305a7.693,7.693,0,0,0,1.3-.756l2.172.872a.894.894,0,0,0,.326.062.879.879,0,0,0,.77-.451l1.918-3.321A.9.9,0,0,0,25.825,12.176Zm-9.388,1.14a3.329,3.329,0,1,1,3.329-3.329A3.332,3.332,0,0,1,16.437,13.316Z" transform="translate(-6.71)" fill="#ae4376"/>
    </g>
  </g>
</svg>
