<svg xmlns="http://www.w3.org/2000/svg" width="16.5" height="18.334" viewBox="0 0 16.5 18.334">
  <g id="Layer_2" data-name="Layer 2" transform="translate(-3 -2)">
    <path id="Path_121" data-name="Path 121" d="M16.75,2h-11A2.75,2.75,0,0,0,3,4.75V18.317a1.833,1.833,0,0,0,2.622,1.659c.22-.11.413-.229.614-.348A2.154,2.154,0,0,1,7.583,19.2a2.182,2.182,0,0,1,1.357.431,3.932,3.932,0,0,0,2.31.706,3.923,3.923,0,0,0,2.31-.706,2.173,2.173,0,0,1,1.357-.431,2.136,2.136,0,0,1,1.348.431,6.591,6.591,0,0,0,.614.339,1.833,1.833,0,0,0,2.622-1.65V4.75A2.75,2.75,0,0,0,16.75,2Zm-5.5,12.833H7.583a.917.917,0,1,1,0-1.833H11.25a.917.917,0,1,1,0,1.833Zm3.667-3.667H7.583a.917.917,0,1,1,0-1.833h7.333a.917.917,0,1,1,0,1.833Zm0-3.667H7.583a.917.917,0,1,1,0-1.833h7.333a.917.917,0,1,1,0,1.833Z" fill="#ae4376"/>
  </g>
</svg>
