<svg xmlns="http://www.w3.org/2000/svg" width="13.203" height="16.25" viewBox="0 0 13.203 16.25">
  <g id="files" transform="translate(-48 0)">
    <g id="Group_239" data-name="Group 239" transform="translate(48 0)">
      <g id="Group_238" data-name="Group 238" transform="translate(0 0)">
        <path id="Path_164" data-name="Path 164" d="M61.056,3.194,58.009.147A.508.508,0,0,0,57.648,0H49.523A1.523,1.523,0,0,0,48,1.523v13.2a1.523,1.523,0,0,0,1.523,1.523H59.68A1.523,1.523,0,0,0,61.2,14.726V3.554A.508.508,0,0,0,61.056,3.194Zm-.868,11.532a.508.508,0,0,1-.508.508H49.523a.508.508,0,0,1-.508-.508V1.523a.508.508,0,0,1,.508-.508h7.617V3.047a1.016,1.016,0,0,0,1.016,1.016h2.031Z" transform="translate(-48 0)" fill="#fff"/>
        <rect id="Rectangle_100" data-name="Rectangle 100" width="1.251" height="0.625" transform="translate(10.077 12.498)" fill="#fff"/>
        <rect id="Rectangle_101" data-name="Rectangle 101" width="9.379" height="1.251" transform="translate(1.948 6.871)" fill="#fff"/>
        <rect id="Rectangle_102" data-name="Rectangle 102" width="9.379" height="1.251" transform="translate(1.948 9.372)" fill="#fff"/>
        <rect id="Rectangle_103" data-name="Rectangle 103" width="7.503" height="0.625" transform="translate(1.948 12.498)" fill="#fff"/>
      </g>
    </g>
  </g>
</svg>
