<svg xmlns="http://www.w3.org/2000/svg" width="26.031" height="26.031" viewBox="0 0 26.031 26.031">
  <g id="Group_58" data-name="Group 58" transform="translate(-17 18)" opacity="0.5">
    <g id="Group_175" data-name="Group 175" transform="translate(17 -18)">
      <path id="Path_15" data-name="Path 15" d="M17.018,30.032a12.694,12.694,0,0,0,3.449-.522A6.4,6.4,0,0,1,18.282,24.7a6.332,6.332,0,0,1,.178-1.444l-.02.019-5.856-5.857a.541.541,0,0,1,.383-.925h3.615a3.071,3.071,0,0,0,2.184-.907,3.019,3.019,0,0,0,.848-1.642H15.259V12.859H19.62a3.086,3.086,0,0,0-3.036-2.532H10.2V9.244H23.833v1.084H19.371A4.126,4.126,0,0,1,20.7,12.859h3.544v1.084H20.723a4.185,4.185,0,0,1-4.14,3.633H14.278l4.551,4.552a6.4,6.4,0,0,1,10.683-1.665,12.7,12.7,0,0,0,.521-3.447A13.015,13.015,0,1,0,17.018,30.032Z" transform="translate(-4.002 -4.001)" fill="#fff"/>
      <path id="Path_16" data-name="Path 16" d="M65.855,58.517a5.342,5.342,0,1,0-7.329,7.342,5.412,5.412,0,0,0,2.752.75,5.338,5.338,0,0,0,5.332-5.333A5.41,5.41,0,0,0,65.855,58.517Zm-5.009,5.1a.542.542,0,0,1-.767,0l-1.632-1.631.766-.766,1.249,1.248,2.88-2.881.768.766Z" transform="translate(-40.579 -40.578)" fill="#fff"/>
    </g>
  </g>
</svg>
