<svg xmlns="http://www.w3.org/2000/svg" xmlns:xlink="http://www.w3.org/1999/xlink" width="702.148" height="277.197" viewBox="0 0 702.148 277.197">
  <defs>
    <linearGradient id="linear-gradient" x1="-0.065" y1="-0.375" x2="0.5" y2="1.047" gradientUnits="objectBoundingBox">
      <stop offset="0" stop-color="#a61c5f"/>
      <stop offset="0.343" stop-color="#be0958"/>
      <stop offset="0.603" stop-color="#f91188"/>
      <stop offset="1" stop-color="#1788c5"/>
    </linearGradient>
  </defs>
  <path id="Path_427" data-name="Path 427" d="M20.8,84.063H52.637V95H6.543V23.906H20.8ZM92.188,95a29.989,29.989,0,0,1-1.343-3.809,26.492,26.492,0,0,1-.806-4.1,19.542,19.542,0,0,1-5.811,6.4,14.563,14.563,0,0,1-8.594,2.539q-8.3,0-12.793-4.272T58.35,80.107a13.931,13.931,0,0,1,5.981-12.036Q70.313,63.8,81.787,63.8h8.008V59.6a8.22,8.22,0,0,0-2-5.908q-2-2.1-5.957-2.1a7.745,7.745,0,0,0-5.347,1.685,5.881,5.881,0,0,0-1.88,4.614H60.889l-.1-.293q-.342-6.689,5.835-11.548t16.138-4.858q9.521,0,15.405,4.785T104.053,59.7V81.523a41.28,41.28,0,0,0,.562,6.982A35.038,35.038,0,0,0,106.4,95ZM79.15,85.479a12.147,12.147,0,0,0,6.641-1.855,9.989,9.989,0,0,0,4-4.3V71.855H81.787q-4.541,0-6.86,2.246a7.381,7.381,0,0,0-2.319,5.518,5.509,5.509,0,0,0,1.733,4.272A6.857,6.857,0,0,0,79.15,85.479Zm67.969,1.709a17.937,17.937,0,0,1-6.2,6.543,16.439,16.439,0,0,1-8.74,2.295q-8.35,0-13.062-5.664T114.4,72.783V42.168h14.209V72.881q0,6.934,1.88,9.5t5.835,2.563a14.207,14.207,0,0,0,5.859-1.1,9.877,9.877,0,0,0,4-3.247V42.168h14.258V95H148.633Zm37.109-45.02.635,7.568a19.324,19.324,0,0,1,6.494-6.3A16.858,16.858,0,0,1,200,41.191q8.008,0,12.5,5.151t4.492,16.284V95H202.686V62.676q0-5.664-1.978-8.032a7.288,7.288,0,0,0-5.933-2.368,12.45,12.45,0,0,0-5.591,1.2,10.914,10.914,0,0,0-3.979,3.3V95H170.947V42.168Zm65.479,42.92a7.935,7.935,0,0,0,5.908-2.222,8.068,8.068,0,0,0,2.2-5.933H270.8l.1.293a16.534,16.534,0,0,1-5.957,13.4,22.277,22.277,0,0,1-15.234,5.4q-11.719,0-18.115-7.5t-6.4-19.165V67.9q0-11.621,6.372-19.165t18.042-7.544q9.668,0,15.576,5.566T270.9,61.406l-.1.293H257.813a10.543,10.543,0,0,0-2.173-6.812,7.3,7.3,0,0,0-6.03-2.71q-5.518,0-7.837,4.419a24.235,24.235,0,0,0-2.319,11.3v1.465q0,7.031,2.319,11.377T249.707,85.088Zm43.408-36.23a18.149,18.149,0,0,1,6.1-5.64,16.089,16.089,0,0,1,8.008-2.026q8.252,0,12.964,5.493T324.9,63.652V95H310.645V63.555q0-6.152-1.978-8.716a7.026,7.026,0,0,0-5.933-2.563,14.194,14.194,0,0,0-5.688,1.05,9.817,9.817,0,0,0-3.931,3V95H278.857V18.828h14.258ZM350.635,95H336.377V42.168h14.258Zm0-65.479H336.377V18.828h14.258Zm24.756,12.646.635,7.568a19.324,19.324,0,0,1,6.494-6.3,16.858,16.858,0,0,1,8.643-2.246q8.008,0,12.5,5.151t4.492,16.284V95H393.848V62.676q0-5.664-1.978-8.032a7.288,7.288,0,0,0-5.933-2.368,12.45,12.45,0,0,0-5.591,1.2,10.914,10.914,0,0,0-3.979,3.3V95H362.109V42.168ZM416.7,69.023q0-12.5,5.42-20.166t15.234-7.666a15,15,0,0,1,7.813,2,17.535,17.535,0,0,1,5.762,5.713l1.123-6.738h12.256V94.756q0,10.3-6.738,15.942t-18.8,5.64a35.814,35.814,0,0,1-8.5-1.1,39.454,39.454,0,0,1-8.3-3l2.393-10.645a32.72,32.72,0,0,0,6.763,2.368,33.512,33.512,0,0,0,7.544.806q5.859,0,8.618-2.441t2.759-7.617V89.922a15.95,15.95,0,0,1-5.518,4.541,16.265,16.265,0,0,1-7.275,1.563q-9.717,0-15.137-7.129T416.7,70.049Zm14.258,1.025q0,6.934,2.319,10.913t7.593,3.979a11.768,11.768,0,0,0,5.542-1.2,9.139,9.139,0,0,0,3.638-3.491v-22.9a9.745,9.745,0,0,0-3.638-3.76,10.663,10.663,0,0,0-5.444-1.318,8,8,0,0,0-7.617,4.639q-2.393,4.639-2.393,12.109ZM526.318,56.67h.293l15.527-32.764h15.625L533.4,70V95H519.141V69.268L495.166,23.906h15.625ZM558.4,68.1q0-11.816,6.592-19.36t18.262-7.544q11.719,0,18.359,7.52T608.252,68.1v1.025q0,11.914-6.616,19.409t-18.286,7.5q-11.719,0-18.335-7.5T558.4,69.121Zm14.209,1.025q0,7.227,2.539,11.6t8.2,4.37a8.679,8.679,0,0,0,8.081-4.395q2.563-4.395,2.563-11.572V68.1q0-7.031-2.588-11.475a8.756,8.756,0,0,0-8.154-4.443,8.648,8.648,0,0,0-8.081,4.468q-2.563,4.468-2.563,11.45Zm76.807,18.066a17.937,17.937,0,0,1-6.2,6.543,16.439,16.439,0,0,1-8.74,2.295q-8.35,0-13.062-5.664T616.7,72.783V42.168h14.209V72.881q0,6.934,1.88,9.5t5.835,2.563a14.207,14.207,0,0,0,5.859-1.1,9.877,9.877,0,0,0,4-3.247V42.168h14.258V95H650.928ZM701.27,54.424l-5.225-.146A9.5,9.5,0,0,0,690.82,55.6a8.355,8.355,0,0,0-3.125,3.711V95H673.486V42.168h13.232l.635,7.813a16.667,16.667,0,0,1,4.81-6.47,11.236,11.236,0,0,1,8.789-2.148q.9.171,1.831.415ZM48.1,165.459H20.8V195H6.543V123.906H53.076v10.986H20.8v19.58H48.1ZM76.074,195H61.816V142.168H76.074Zm0-65.479H61.816V118.828H76.074Zm24.756,12.646.635,7.568a19.324,19.324,0,0,1,6.494-6.3,16.858,16.858,0,0,1,8.643-2.246q8.008,0,12.5,5.151t4.492,16.284V195H119.287V162.676q0-5.664-1.978-8.032a7.288,7.288,0,0,0-5.933-2.368,12.45,12.45,0,0,0-5.591,1.2,10.914,10.914,0,0,0-3.979,3.3V195H87.549V142.168ZM175.391,195a29.988,29.988,0,0,1-1.343-3.809,26.494,26.494,0,0,1-.806-4.1,19.542,19.542,0,0,1-5.811,6.4,14.563,14.563,0,0,1-8.594,2.539q-8.3,0-12.793-4.272t-4.492-11.646a13.931,13.931,0,0,1,5.981-12.036q5.981-4.272,17.456-4.272H173v-4.2a8.22,8.22,0,0,0-2-5.908q-2-2.1-5.957-2.1a7.745,7.745,0,0,0-5.347,1.685,5.881,5.881,0,0,0-1.88,4.614H144.092l-.1-.293q-.342-6.689,5.835-11.548t16.138-4.858q9.521,0,15.405,4.785t5.884,13.721v21.826a41.281,41.281,0,0,0,.562,6.982A35.038,35.038,0,0,0,189.6,195Zm-13.037-9.521a12.147,12.147,0,0,0,6.641-1.855,9.989,9.989,0,0,0,4-4.3v-7.471H164.99q-4.541,0-6.86,2.246a7.381,7.381,0,0,0-2.319,5.518,5.509,5.509,0,0,0,1.733,4.272A6.857,6.857,0,0,0,162.354,185.479Zm48.633-43.311.635,7.568a19.324,19.324,0,0,1,6.494-6.3,16.858,16.858,0,0,1,8.643-2.246q8.008,0,12.5,5.151t4.492,16.284V195H229.443V162.676q0-5.664-1.978-8.032a7.288,7.288,0,0,0-5.933-2.368,12.45,12.45,0,0,0-5.591,1.2,10.914,10.914,0,0,0-3.979,3.3V195H197.705V142.168Zm65.479,42.92a7.935,7.935,0,0,0,5.908-2.222,8.068,8.068,0,0,0,2.2-5.933h12.988l.1.293a16.534,16.534,0,0,1-5.957,13.4,22.277,22.277,0,0,1-15.234,5.4q-11.719,0-18.115-7.5t-6.4-19.165V167.9q0-11.621,6.372-19.165t18.042-7.544q9.668,0,15.576,5.566t5.713,14.648l-.1.293H284.57a10.543,10.543,0,0,0-2.173-6.812,7.3,7.3,0,0,0-6.03-2.71q-5.518,0-7.837,4.419a24.235,24.235,0,0,0-2.319,11.3v1.465q0,7.031,2.319,11.377T276.465,185.088Zm52.393,10.938q-11.816,0-18.457-7.251T303.76,170.1v-1.953q0-11.865,6.445-19.434t17.725-7.52q10.645,0,16.333,6.519t5.688,17.554v7.373H318.457l-.146.293a14.273,14.273,0,0,0,3.3,8.789q2.954,3.369,8.765,3.369a29.327,29.327,0,0,0,8.13-.977,33.172,33.172,0,0,0,6.909-2.979l3.857,8.789a26.464,26.464,0,0,1-8.594,4.346A38.111,38.111,0,0,1,328.857,196.025Zm-.928-43.848a7.919,7.919,0,0,0-6.616,2.954,14.818,14.818,0,0,0-2.808,7.837l.1.244h17.383v-1.074a12.34,12.34,0,0,0-1.9-7.3Q332.178,152.178,327.93,152.178Zm58.887,28.174a4.919,4.919,0,0,0-2.271-4.028q-2.271-1.685-8.423-2.954-9.277-1.855-14.087-5.615a12.264,12.264,0,0,1-4.81-10.205q0-6.787,5.762-11.572t15.332-4.785q10.01,0,16.04,4.785t5.786,11.914l-.1.293h-13.77a6.915,6.915,0,0,0-2.051-5.176,9.589,9.589,0,0,0-11.328-.293,5.315,5.315,0,0,0-2,4.2,4.742,4.742,0,0,0,2.075,3.979q2.075,1.538,8.423,2.759,9.717,1.953,14.478,5.737a12.585,12.585,0,0,1,4.761,10.425,13.945,13.945,0,0,1-6.1,11.67q-6.1,4.541-16.113,4.541-10.547,0-16.675-5.347T355.908,178.5l.1-.293h13.037q.146,4.248,2.783,6.152a11.49,11.49,0,0,0,6.885,1.9,9.791,9.791,0,0,0,6.03-1.587A5.148,5.148,0,0,0,386.816,180.352ZM449.707,195H435.449V142.168h14.258Zm0-65.479H435.449V118.828h14.258Zm24.756,12.646.635,7.568a19.324,19.324,0,0,1,6.494-6.3,16.858,16.858,0,0,1,8.643-2.246q8.008,0,12.5,5.151t4.492,16.284V195H492.92V162.676q0-5.664-1.978-8.032a7.288,7.288,0,0,0-5.933-2.368,12.45,12.45,0,0,0-5.591,1.2,10.914,10.914,0,0,0-3.979,3.3V195H461.182V142.168Zm60.5-12.939v12.939H543.9v10.01h-8.936v26.9q0,3.076,1.294,4.395a4.543,4.543,0,0,0,3.394,1.318,13.613,13.613,0,0,0,1.953-.122,16.447,16.447,0,0,0,1.9-.415l1.172,10.3a28.865,28.865,0,0,1-4.175,1.1,24.889,24.889,0,0,1-4.419.366q-7.373,0-11.353-4.053t-3.979-12.842V152.178h-7.715v-10.01h7.715V129.229ZM550.488,168.1q0-11.816,6.592-19.36t18.262-7.544q11.719,0,18.359,7.52t6.641,19.385v1.025q0,11.914-6.616,19.409t-18.286,7.5q-11.719,0-18.335-7.5t-6.616-19.409Zm14.209,1.025q0,7.227,2.539,11.6t8.2,4.37a8.679,8.679,0,0,0,8.081-4.395q2.563-4.395,2.563-11.572V168.1q0-7.031-2.588-11.475a8.756,8.756,0,0,0-8.154-4.443,8.648,8.648,0,0,0-8.081,4.468q-2.563,4.468-2.563,11.45ZM22.559,229.229v12.939h8.936v10.01H22.559v26.9q0,3.076,1.294,4.395a4.543,4.543,0,0,0,3.394,1.318,13.611,13.611,0,0,0,1.953-.122,16.452,16.452,0,0,0,1.9-.415l1.172,10.3a28.864,28.864,0,0,1-4.175,1.1,24.889,24.889,0,0,1-4.419.366q-7.373,0-11.353-4.053T8.35,279.131V252.178H.635v-10.01H8.35V229.229ZM54.2,248.857a18.149,18.149,0,0,1,6.1-5.64,16.089,16.089,0,0,1,8.008-2.026q8.252,0,12.964,5.493t4.712,16.968V295H71.729V263.555q0-6.152-1.978-8.716a7.026,7.026,0,0,0-5.933-2.563,14.194,14.194,0,0,0-5.688,1.05,9.817,9.817,0,0,0-3.931,3V295H39.941V218.828H54.2Zm65.43,47.168q-11.816,0-18.457-7.251T94.531,270.1v-1.953q0-11.865,6.445-19.434t17.725-7.52q10.645,0,16.333,6.519t5.688,17.554v7.373H109.229l-.146.293a14.273,14.273,0,0,0,3.3,8.789q2.954,3.369,8.765,3.369a29.328,29.328,0,0,0,8.13-.977,33.172,33.172,0,0,0,6.909-2.979l3.857,8.789a26.464,26.464,0,0,1-8.594,4.346A38.111,38.111,0,0,1,119.629,296.025Zm-.928-43.848a7.919,7.919,0,0,0-6.616,2.954,14.818,14.818,0,0,0-2.808,7.837l.1.244h17.383v-1.074a12.34,12.34,0,0,0-1.9-7.3Q122.949,252.178,118.7,252.178Zm97.852,13.281H189.258V295H175V223.906h46.533v10.986H189.258v19.58h27.295Zm44.287,21.729a17.937,17.937,0,0,1-6.2,6.543,16.439,16.439,0,0,1-8.74,2.295q-8.35,0-13.062-5.664t-4.712-17.578V242.168h14.209v30.713q0,6.934,1.88,9.5t5.835,2.563a14.207,14.207,0,0,0,5.859-1.1,9.877,9.877,0,0,0,4-3.247V242.168H274.17V295H262.354ZM302,229.229v12.939h8.936v10.01H302v26.9q0,3.076,1.294,4.395a4.543,4.543,0,0,0,3.394,1.318,13.611,13.611,0,0,0,1.953-.122,16.453,16.453,0,0,0,1.9-.415l1.172,10.3a28.863,28.863,0,0,1-4.175,1.1,24.889,24.889,0,0,1-4.419.366q-7.373,0-11.353-4.053t-3.979-12.842V252.178h-7.715v-10.01h7.715V229.229Zm50.1,57.959a17.937,17.937,0,0,1-6.2,6.543,16.439,16.439,0,0,1-8.74,2.295q-8.35,0-13.062-5.664t-4.712-17.578V242.168h14.209v30.713q0,6.934,1.88,9.5t5.835,2.563a14.207,14.207,0,0,0,5.859-1.1,9.877,9.877,0,0,0,4-3.247V242.168H365.43V295H353.613Zm51.855-32.764-5.225-.146a9.5,9.5,0,0,0-5.225,1.318,8.355,8.355,0,0,0-3.125,3.711V295H376.172V242.168H389.4l.635,7.813a16.666,16.666,0,0,1,4.81-6.47,11.236,11.236,0,0,1,8.789-2.148q.9.171,1.831.415Zm29.395,41.6q-11.816,0-18.457-7.251T408.252,270.1v-1.953q0-11.865,6.445-19.434t17.725-7.52q10.645,0,16.333,6.519t5.688,17.554v7.373H422.949l-.146.293a14.273,14.273,0,0,0,3.3,8.789q2.954,3.369,8.765,3.369a29.328,29.328,0,0,0,8.13-.977,33.172,33.172,0,0,0,6.909-2.979l3.857,8.789a26.464,26.464,0,0,1-8.594,4.346A38.111,38.111,0,0,1,433.35,296.025Zm-.928-43.848a7.919,7.919,0,0,0-6.616,2.954A14.818,14.818,0,0,0,423,262.969l.1.244h17.383v-1.074a12.34,12.34,0,0,0-1.9-7.3Q436.67,252.178,432.422,252.178Z" transform="translate(-0.635 -18.828)" fill="url(#linear-gradient)"/>
</svg>
