<svg id="tick-mark" xmlns="http://www.w3.org/2000/svg" width="38" height="38" viewBox="0 0 38 38">
  <path id="Path_152" data-name="Path 152" d="M33.4,10.889a4.362,4.362,0,0,0-.683-5.04l-.569-.569a4.212,4.212,0,0,0-5.04-.683c-1.131.634-3.525-.684-3.7-1.537A4.044,4.044,0,0,0,19.388,0l-.977.05A4.224,4.224,0,0,0,14.4,4.268c.077.976-1.6,1.7-2.566,1.063a4.268,4.268,0,0,0-6.036,0L5.331,5.8a4.318,4.318,0,0,0-.611,5.267c.675,1.145.017,3.172-1.093,3.445A4.36,4.36,0,0,0,0,18.681v.707a4.377,4.377,0,0,0,3.168,4.008c1.822.646,1.679,3.32,1.492,3.64A4.27,4.27,0,0,0,5.331,32.2l.467.467a4.361,4.361,0,0,0,5.142.685c1.194-.624,3.423.542,3.608,1.495A4.124,4.124,0,0,0,18.67,38h.608A4.323,4.323,0,0,0,23.4,34.983a2.96,2.96,0,0,1,3.853-1.57,4.585,4.585,0,0,0,4.992-.786l.425-.425a4.268,4.268,0,0,0,0-6.036c-.749-.68.214-2.555,1.063-2.566A4.268,4.268,0,0,0,38,19.33V18.6a4.164,4.164,0,0,0-3.137-4.117C33.63,14.212,33,11.723,33.4,10.889Z" fill="#fff"/>
  <path id="Path_153" data-name="Path 153" d="M140.624,179.859l-4.953-4.953a1.52,1.52,0,0,1,2.15-2.15l3.878,3.878,8.378-8.378a1.52,1.52,0,1,1,2.15,2.15l-9.452,9.453A1.737,1.737,0,0,1,140.624,179.859Z" transform="translate(-124.949 -155.058)" fill="#9365f5"/>
</svg>
