<svg xmlns="http://www.w3.org/2000/svg" xmlns:xlink="http://www.w3.org/1999/xlink" width="857" height="93"><defs><clipPath id="n"><path d="m799 93.336 58-92L0 .668v92.668Zm0 0"/></clipPath><clipPath id="c"><path d="M61 .668h4V5h-4Zm0 0"/></clipPath><clipPath id="d"><path d="M218 .668h5V5h-5Zm0 0"/></clipPath><clipPath id="e"><path d="M87 .668h5V5h-5Zm0 0"/></clipPath><clipPath id="f"><path d="M371 .668h5V5h-5Zm0 0"/></clipPath><clipPath id="g"><path d="M240 .668h5V5h-5Zm0 0"/></clipPath><clipPath id="h"><path d="M529 .668h4V5h-4Zm0 0"/></clipPath><clipPath id="i"><path d="M398 .668h4V5h-4Zm0 0"/></clipPath><clipPath id="j"><path d="M685 .668h4V5h-4Zm0 0"/></clipPath><clipPath id="k"><path d="M554 .668h4V5h-4Zm0 0"/></clipPath><clipPath id="l"><path d="M842 .668h5V5h-5Zm0 0"/></clipPath><clipPath id="m"><path d="M711 .668h5V5h-5Zm0 0"/></clipPath><clipPath id="b"><path d="M0 0h857v93H0z"/></clipPath><filter id="a" width="100%" height="100%" x="0%" y="0%" filterUnits="objectBoundingBox"><feColorMatrix in="SourceGraphic" values="0 0 0 0 1 0 0 0 0 1 0 0 0 0 1 0 0 0 1 0"/></filter><mask id="p"><g filter="url(#a)"><path d="M0 0h857v93H0z" style="fill:#000;fill-opacity:.529412;stroke:none"/></g></mask><g id="o" clip-path="url(#b)"><path d="m1243.52 73.185-.258.25M1238.582 77.997l-.52.508" style="fill:none;stroke-width:3;stroke-linecap:round;stroke-linejoin:round;stroke:#b20153;stroke-opacity:1;stroke-miterlimit:4" transform="translate(-1097 .667)"/><path d="m1238.063 78.505-57.2 55.77" style="fill:none;stroke-width:3;stroke-linecap:round;stroke-linejoin:round;stroke:#b20153;stroke-opacity:1;stroke-dasharray:1.019,9.172,1.019,0;stroke-miterlimit:4" transform="translate(-1097 .667)"/><path d="m1102.14 73.188.255.25M1107.074 77.997l.524.508" style="fill:none;stroke-width:3;stroke-linecap:round;stroke-linejoin:round;stroke:#b20153;stroke-opacity:1;stroke-miterlimit:4" transform="translate(-1097 .667)"/><path d="m1107.598 78.505 57.199 55.766" style="fill:none;stroke-width:3;stroke-linecap:round;stroke-linejoin:round;stroke:#b20153;stroke-opacity:1;stroke-dasharray:1.019,9.172,1.019,0;stroke-miterlimit:4" transform="translate(-1097 .667)"/><path d="M1098.773 69.907a6.35 6.35 0 0 1-8.82 0 5.975 5.975 0 0 1 0-8.602 6.35 6.35 0 0 1 8.82 0 5.975 5.975 0 0 1 0 8.602" style="fill-rule:nonzero;fill:#b20153;fill-opacity:1;stroke-width:1;stroke-linecap:butt;stroke-linejoin:miter;stroke:#b20153;stroke-opacity:1;stroke-miterlimit:4" transform="translate(-1097 .667)"/><g clip-path="url(#c)"><path d="m1160.117 1.497-.52.508" style="fill:none;stroke-width:3;stroke-linecap:round;stroke-linejoin:round;stroke:#b20153;stroke-opacity:1;stroke-miterlimit:4" transform="translate(-1097 .667)"/></g><path d="m1159.598 2.005-57.2 55.77" style="fill:none;stroke-width:3;stroke-linecap:round;stroke-linejoin:round;stroke:#b20153;stroke-opacity:1;stroke-dasharray:1.019,9.172,1.019,0;stroke-miterlimit:4" transform="translate(-1097 .667)"/><path d="m1102.398 57.774-.257.246M1259.625 73.188l.258.25M1264.563 77.997l.519.508" style="fill:none;stroke-width:3;stroke-linecap:round;stroke-linejoin:round;stroke:#b20153;stroke-opacity:1;stroke-miterlimit:4" transform="translate(-1097 .667)"/><path d="m1265.082 78.505 57.2 55.766" style="fill:none;stroke-width:3;stroke-linecap:round;stroke-linejoin:round;stroke:#b20153;stroke-opacity:1;stroke-dasharray:1.019,9.172,1.019,0;stroke-miterlimit:4" transform="translate(-1097 .667)"/><path d="M1256.262 69.907a6.355 6.355 0 0 1-8.824 0 5.975 5.975 0 0 1 0-8.602 6.355 6.355 0 0 1 8.824 0 5.99 5.99 0 0 1 1.824 4.301c0 1.622-.66 3.172-1.824 4.301" style="fill-rule:nonzero;fill:#b20153;fill-opacity:1;stroke-width:1;stroke-linecap:butt;stroke-linejoin:miter;stroke:#b20153;stroke-opacity:1;stroke-miterlimit:4" transform="translate(-1097 .667)"/><g clip-path="url(#d)"><path d="m1317.602 1.497-.52.508" style="fill:none;stroke-width:3;stroke-linecap:round;stroke-linejoin:round;stroke:#b20153;stroke-opacity:1;stroke-miterlimit:4" transform="translate(-1097 .667)"/></g><path d="m1317.082 2.005-57.2 55.77" style="fill:none;stroke-width:3;stroke-linecap:round;stroke-linejoin:round;stroke:#b20153;stroke-opacity:1;stroke-dasharray:1.019,9.172,1.019,0;stroke-miterlimit:4" transform="translate(-1097 .667)"/><path d="m1259.883 57.774-.254.246" style="fill:none;stroke-width:3;stroke-linecap:round;stroke-linejoin:round;stroke:#b20153;stroke-opacity:1;stroke-miterlimit:4" transform="translate(-1097 .667)"/><g clip-path="url(#e)"><path d="m1186.094 1.497.52.508" style="fill:none;stroke-width:3;stroke-linecap:round;stroke-linejoin:round;stroke:#b20153;stroke-opacity:1;stroke-miterlimit:4" transform="translate(-1097 .667)"/></g><path d="m1186.613 2.005 57.203 55.766" style="fill:none;stroke-width:3;stroke-linecap:round;stroke-linejoin:round;stroke:#b20153;stroke-opacity:1;stroke-dasharray:1.019,9.172,1.019,0;stroke-miterlimit:4" transform="translate(-1097 .667)"/><path d="m1243.816 57.77.254.25M1554.313 73.185l-.254.25M1549.379 77.997l-.52.508" style="fill:none;stroke-width:3;stroke-linecap:round;stroke-linejoin:round;stroke:#b20153;stroke-opacity:1;stroke-miterlimit:4" transform="translate(-1097 .667)"/><path d="m1548.855 78.505-57.199 55.77" style="fill:none;stroke-width:3;stroke-linecap:round;stroke-linejoin:round;stroke:#b20153;stroke-opacity:1;stroke-dasharray:1.019,9.172,1.019,0;stroke-miterlimit:4" transform="translate(-1097 .667)"/><path d="m1412.934 73.188.257.25M1417.871 77.997l.52.508" style="fill:none;stroke-width:3;stroke-linecap:round;stroke-linejoin:round;stroke:#b20153;stroke-opacity:1;stroke-miterlimit:4" transform="translate(-1097 .667)"/><path d="m1418.39 78.505 57.204 55.766" style="fill:none;stroke-width:3;stroke-linecap:round;stroke-linejoin:round;stroke:#b20153;stroke-opacity:1;stroke-dasharray:1.019,9.172,1.019,0;stroke-miterlimit:4" transform="translate(-1097 .667)"/><path d="M1409.57 69.907a6.355 6.355 0 0 1-8.824 0 5.98 5.98 0 0 1-1.824-4.3 5.97 5.97 0 0 1 1.824-4.301 6.355 6.355 0 0 1 8.824 0 5.97 5.97 0 0 1 1.825 4.3 5.98 5.98 0 0 1-1.825 4.301" style="fill-rule:nonzero;fill:#b20153;fill-opacity:1;stroke-width:1;stroke-linecap:butt;stroke-linejoin:miter;stroke:#b20153;stroke-opacity:1;stroke-miterlimit:4" transform="translate(-1097 .667)"/><g clip-path="url(#f)"><path d="m1470.91 1.497-.52.508" style="fill:none;stroke-width:3;stroke-linecap:round;stroke-linejoin:round;stroke:#b20153;stroke-opacity:1;stroke-miterlimit:4" transform="translate(-1097 .667)"/></g><path d="m1470.39 2.005-57.199 55.77" style="fill:none;stroke-width:3;stroke-linecap:round;stroke-linejoin:round;stroke:#b20153;stroke-opacity:1;stroke-dasharray:1.019,9.172,1.019,0;stroke-miterlimit:4" transform="translate(-1097 .667)"/><path d="m1413.191 57.774-.254.246" style="fill:none;stroke-width:3;stroke-linecap:round;stroke-linejoin:round;stroke:#b20153;stroke-opacity:1;stroke-miterlimit:4" transform="translate(-1097 .667)"/><path d="m1339.926 129.204 57.195-55.77" style="fill:none;stroke-width:3;stroke-linecap:round;stroke-linejoin:round;stroke:#b20153;stroke-opacity:1;stroke-dasharray:1.019,9.172,1.019,0;stroke-miterlimit:4" transform="translate(-1097 .667)"/><path d="m1397.125 73.435.254-.25" style="fill:none;stroke-width:3;stroke-linecap:round;stroke-linejoin:round;stroke:#b20153;stroke-opacity:1;stroke-miterlimit:4" transform="translate(-1097 .667)"/><g clip-path="url(#g)"><path d="m1339.402 1.497.52.508" style="fill:none;stroke-width:3;stroke-linecap:round;stroke-linejoin:round;stroke:#b20153;stroke-opacity:1;stroke-miterlimit:4" transform="translate(-1097 .667)"/></g><path d="m1339.922 2.005 57.203 55.766" style="fill:none;stroke-width:3;stroke-linecap:round;stroke-linejoin:round;stroke:#b20153;stroke-opacity:1;stroke-dasharray:1.019,9.172,1.019,0;stroke-miterlimit:4" transform="translate(-1097 .667)"/><path d="m1397.125 57.77.254.25M1570.422 73.188l.254.25M1575.355 77.997l.52.508" style="fill:none;stroke-width:3;stroke-linecap:round;stroke-linejoin:round;stroke:#b20153;stroke-opacity:1;stroke-miterlimit:4" transform="translate(-1097 .667)"/><path d="m1575.875 78.505 57.203 55.766" style="fill:none;stroke-width:3;stroke-linecap:round;stroke-linejoin:round;stroke:#b20153;stroke-opacity:1;stroke-dasharray:1.019,9.172,1.019,0;stroke-miterlimit:4" transform="translate(-1097 .667)"/><path d="M1567.055 69.907a6.355 6.355 0 0 1-8.825 0 5.98 5.98 0 0 1-1.824-4.3 5.97 5.97 0 0 1 1.824-4.301 6.355 6.355 0 0 1 8.825 0 5.97 5.97 0 0 1 1.824 4.3 5.98 5.98 0 0 1-1.824 4.301" style="fill-rule:nonzero;fill:#b20153;fill-opacity:1;stroke-width:1;stroke-linecap:butt;stroke-linejoin:miter;stroke:#b20153;stroke-opacity:1;stroke-miterlimit:4" transform="translate(-1097 .667)"/><g clip-path="url(#h)"><path d="m1628.395 1.497-.52.508" style="fill:none;stroke-width:3;stroke-linecap:round;stroke-linejoin:round;stroke:#b20153;stroke-opacity:1;stroke-miterlimit:4" transform="translate(-1097 .667)"/></g><path d="m1627.875 2.005-57.2 55.77" style="fill:none;stroke-width:3;stroke-linecap:round;stroke-linejoin:round;stroke:#b20153;stroke-opacity:1;stroke-dasharray:1.019,9.172,1.019,0;stroke-miterlimit:4" transform="translate(-1097 .667)"/><path d="m1570.676 57.774-.254.246" style="fill:none;stroke-width:3;stroke-linecap:round;stroke-linejoin:round;stroke:#b20153;stroke-opacity:1;stroke-miterlimit:4" transform="translate(-1097 .667)"/><g clip-path="url(#i)"><path d="m1496.89 1.497.52.508" style="fill:none;stroke-width:3;stroke-linecap:round;stroke-linejoin:round;stroke:#b20153;stroke-opacity:1;stroke-miterlimit:4" transform="translate(-1097 .667)"/></g><path d="m1497.41 2.005 57.2 55.766" style="fill:none;stroke-width:3;stroke-linecap:round;stroke-linejoin:round;stroke:#b20153;stroke-opacity:1;stroke-dasharray:1.019,9.172,1.019,0;stroke-miterlimit:4" transform="translate(-1097 .667)"/><path d="m1554.61 57.77.257.25M1867.664 73.185l-.258.25M1862.727 77.997l-.52.508" style="fill:none;stroke-width:3;stroke-linecap:round;stroke-linejoin:round;stroke:#b20153;stroke-opacity:1;stroke-miterlimit:4" transform="translate(-1097 .667)"/><path d="m1862.21 78.505-57.198 55.77" style="fill:none;stroke-width:3;stroke-linecap:round;stroke-linejoin:round;stroke:#b20153;stroke-opacity:1;stroke-dasharray:1.019,9.172,1.019,0;stroke-miterlimit:4" transform="translate(-1097 .667)"/><path d="m1726.285 73.188.254.25M1731.223 77.997l.52.508" style="fill:none;stroke-width:3;stroke-linecap:round;stroke-linejoin:round;stroke:#b20153;stroke-opacity:1;stroke-miterlimit:4" transform="translate(-1097 .667)"/><path d="m1731.742 78.505 57.2 55.766" style="fill:none;stroke-width:3;stroke-linecap:round;stroke-linejoin:round;stroke:#b20153;stroke-opacity:1;stroke-dasharray:1.019,9.172,1.019,0;stroke-miterlimit:4" transform="translate(-1097 .667)"/><path d="M1722.922 69.907a6.355 6.355 0 0 1-8.824 0 5.975 5.975 0 0 1 0-8.602 6.355 6.355 0 0 1 8.824 0 5.99 5.99 0 0 1 1.824 4.301c0 1.622-.66 3.172-1.824 4.301" style="fill-rule:nonzero;fill:#b20153;fill-opacity:1;stroke-width:1;stroke-linecap:butt;stroke-linejoin:miter;stroke:#b20153;stroke-opacity:1;stroke-miterlimit:4" transform="translate(-1097 .667)"/><g clip-path="url(#j)"><path d="m1784.262 1.497-.52.508" style="fill:none;stroke-width:3;stroke-linecap:round;stroke-linejoin:round;stroke:#b20153;stroke-opacity:1;stroke-miterlimit:4" transform="translate(-1097 .667)"/></g><path d="m1783.742 2.005-57.199 55.77" style="fill:none;stroke-width:3;stroke-linecap:round;stroke-linejoin:round;stroke:#b20153;stroke-opacity:1;stroke-dasharray:1.019,9.172,1.019,0;stroke-miterlimit:4" transform="translate(-1097 .667)"/><path d="m1726.543 57.774-.258.246" style="fill:none;stroke-width:3;stroke-linecap:round;stroke-linejoin:round;stroke:#b20153;stroke-opacity:1;stroke-miterlimit:4" transform="translate(-1097 .667)"/><path d="m1653.277 129.204 57.2-55.77" style="fill:none;stroke-width:3;stroke-linecap:round;stroke-linejoin:round;stroke:#b20153;stroke-opacity:1;stroke-dasharray:1.019,9.172,1.019,0;stroke-miterlimit:4" transform="translate(-1097 .667)"/><path d="m1710.473 73.435.257-.25" style="fill:none;stroke-width:3;stroke-linecap:round;stroke-linejoin:round;stroke:#b20153;stroke-opacity:1;stroke-miterlimit:4" transform="translate(-1097 .667)"/><g clip-path="url(#k)"><path d="m1652.754 1.497.52.508" style="fill:none;stroke-width:3;stroke-linecap:round;stroke-linejoin:round;stroke:#b20153;stroke-opacity:1;stroke-miterlimit:4" transform="translate(-1097 .667)"/></g><path d="m1653.273 2.005 57.204 55.766" style="fill:none;stroke-width:3;stroke-linecap:round;stroke-linejoin:round;stroke:#b20153;stroke-opacity:1;stroke-dasharray:1.019,9.172,1.019,0;stroke-miterlimit:4" transform="translate(-1097 .667)"/><path d="m1710.477 57.77.253.25M1883.77 73.188l.257.25M1888.707 77.997l.52.508" style="fill:none;stroke-width:3;stroke-linecap:round;stroke-linejoin:round;stroke:#b20153;stroke-opacity:1;stroke-miterlimit:4" transform="translate(-1097 .667)"/><path d="m1889.227 78.505 57.203 55.766" style="fill:none;stroke-width:3;stroke-linecap:round;stroke-linejoin:round;stroke:#b20153;stroke-opacity:1;stroke-dasharray:1.019,9.172,1.019,0;stroke-miterlimit:4" transform="translate(-1097 .667)"/><path d="M1880.406 69.907a6.355 6.355 0 0 1-8.824 0 5.975 5.975 0 0 1 0-8.602 6.355 6.355 0 0 1 8.824 0 5.99 5.99 0 0 1 1.824 4.301c0 1.622-.66 3.172-1.824 4.301" style="fill-rule:nonzero;fill:#b20153;fill-opacity:1;stroke-width:1;stroke-linecap:butt;stroke-linejoin:miter;stroke:#b20153;stroke-opacity:1;stroke-miterlimit:4" transform="translate(-1097 .667)"/><g clip-path="url(#l)"><path d="m1941.746 1.497-.52.508" style="fill:none;stroke-width:3;stroke-linecap:round;stroke-linejoin:round;stroke:#b20153;stroke-opacity:1;stroke-miterlimit:4" transform="translate(-1097 .667)"/></g><path d="m1941.227 2.005-57.2 55.77" style="fill:none;stroke-width:3;stroke-linecap:round;stroke-linejoin:round;stroke:#b20153;stroke-opacity:1;stroke-dasharray:1.019,9.172,1.019,0;stroke-miterlimit:4" transform="translate(-1097 .667)"/><path d="m1884.027 57.774-.254.246" style="fill:none;stroke-width:3;stroke-linecap:round;stroke-linejoin:round;stroke:#b20153;stroke-opacity:1;stroke-miterlimit:4" transform="translate(-1097 .667)"/><g clip-path="url(#m)"><path d="m1810.238 1.497.524.508" style="fill:none;stroke-width:3;stroke-linecap:round;stroke-linejoin:round;stroke:#b20153;stroke-opacity:1;stroke-miterlimit:4" transform="translate(-1097 .667)"/></g><path d="m1810.762 2.005 57.199 55.766" style="fill:none;stroke-width:3;stroke-linecap:round;stroke-linejoin:round;stroke:#b20153;stroke-opacity:1;stroke-dasharray:1.019,9.172,1.019,0;stroke-miterlimit:4" transform="translate(-1097 .667)"/><path d="m1867.96 57.77.259.25" style="fill:none;stroke-width:3;stroke-linecap:round;stroke-linejoin:round;stroke:#b20153;stroke-opacity:1;stroke-miterlimit:4" transform="translate(-1097 .667)"/></g></defs><path d="m799 92.668 58-92L0 0v92.668Zm0 0" style="stroke:none;fill-rule:nonzero;fill:#8f0545;fill-opacity:1"/><g clip-path="url(#n)"><use xlink:href="#o" mask="url(#p)"/></g></svg>