<svg xmlns="http://www.w3.org/2000/svg" width="28.184" height="31.5" viewBox="0 0 28.184 31.5">
  <g id="rupee_4_" data-name="rupee (4)" transform="translate(-3.5 -2.5)" opacity="0.5">
    <path id="Path_7" data-name="Path 7" d="M17.592,2.5A14.092,14.092,0,1,0,31.684,16.592,14.08,14.08,0,0,0,17.592,2.5Zm0,26.526A12.525,12.525,0,0,1,5.158,16.592,12.525,12.525,0,0,1,17.592,4.158,12.525,12.525,0,0,1,30.026,16.592,12.525,12.525,0,0,1,17.592,29.026Z" transform="translate(0 0)" fill="#fff"/>
    <path id="Path_8" data-name="Path 8" d="M7.184,19.65v.995A18.871,18.871,0,0,1,4.2,16.5,26.821,26.821,0,0,0,7.184,19.65Z" transform="translate(0.461 9.211)" fill="#fff"/>
    <path id="Path_9" data-name="Path 9" d="M9.487,20.326v1.492A9.9,9.9,0,0,1,7,20.326V19A9.089,9.089,0,0,0,9.487,20.326Z" transform="translate(2.303 10.855)" fill="#fff"/>
    <path id="Path_10" data-name="Path 10" d="M15.816,20.2v1.658a10.69,10.69,0,0,1-3.316.5V20.7C13.661,20.532,14.821,20.366,15.816,20.2Z" transform="translate(5.921 11.645)" fill="#fff"/>
    <path id="Path_11" data-name="Path 11" d="M12.816,20.7v1.658a10.69,10.69,0,0,1-3.316-.5V20.2C10.495,20.366,11.655,20.532,12.816,20.7Z" transform="translate(3.947 11.645)" fill="#fff"/>
    <path id="Path_12" data-name="Path 12" d="M17.987,19.1v1.326L15.5,21.918V20.426C16.329,19.929,17.158,19.6,17.987,19.1Z" transform="translate(7.895 10.921)" fill="#fff"/>
    <path id="Path_13" data-name="Path 13" d="M20.984,16.5A10.646,10.646,0,0,1,18,20.645V19.484A12.749,12.749,0,0,0,20.984,16.5Z" transform="translate(9.539 9.211)" fill="#fff"/>
    <path id="Path_14" data-name="Path 14" d="M16.276,4.5A10.776,10.776,0,1,0,27.053,15.276,10.755,10.755,0,0,0,16.276,4.5Zm3.316,7.461H21.25a.829.829,0,1,1,0,1.658H19.592a4.14,4.14,0,0,1-4.145,3.316H13.789l5.471,4.311a.819.819,0,0,1,.166,1.161.861.861,0,0,1-.663.332.609.609,0,0,1-.5-.166l-7.461-5.8c-.166-.166-.332-.663-.166-.829s0-.166.166-.166a.162.162,0,0,0,.166-.166h4.476a2.341,2.341,0,0,0,2.321-1.658H11.3a.783.783,0,0,1-.829-.829c0-.829.332-1.161.829-1.161h6.466A2.493,2.493,0,0,0,15.447,10.3H11.3a.829.829,0,1,1,0-1.658H21.25a.829.829,0,1,1,0,1.658H18.763a5.186,5.186,0,0,1,.829,1.658Z" transform="translate(1.316 1.316)" fill="#fff"/>
  </g>
</svg>
