<svg id="upload" xmlns="http://www.w3.org/2000/svg" width="66.5" height="66.5" viewBox="0 0 66.5 66.5">
  <path id="Path_154" data-name="Path 154" d="M59.637,66.5H54.12a1.385,1.385,0,0,1,0-2.771h5.453a1.415,1.415,0,0,1,1.419,1.385A1.358,1.358,0,0,1,59.637,66.5Zm-13.693,0H40.49a1.385,1.385,0,0,1,0-2.771h5.453a1.385,1.385,0,0,1,0,2.771Zm-13.632,0H26.858a1.385,1.385,0,0,1,0-2.771h5.453a1.385,1.385,0,0,1,0,2.771Zm-13.63,0H13.228a1.385,1.385,0,0,1,0-2.771h5.453a1.385,1.385,0,0,1,0,2.771ZM5.087,66.187a1.4,1.4,0,0,1-.46-.078A6.917,6.917,0,0,1,.213,61.277,1.384,1.384,0,1,1,2.9,60.6a4.146,4.146,0,0,0,2.649,2.9,1.386,1.386,0,0,1-.457,2.693ZM65.1,61.424a.938.938,0,0,1-.125-.006,1.385,1.385,0,0,1-1.258-1.5c.011-.114.014-.227.014-.344V54.588a1.385,1.385,0,0,1,2.771,0v4.985c0,.2-.008.393-.025.587A1.383,1.383,0,0,1,65.1,61.424ZM1.385,54.159A1.386,1.386,0,0,1,0,52.773V47.32a1.385,1.385,0,1,1,2.771,0v5.453A1.386,1.386,0,0,1,1.385,54.159Zm63.729-6.365a1.386,1.386,0,0,1-1.385-1.385V40.956a1.385,1.385,0,0,1,2.771,0v5.453A1.386,1.386,0,0,1,65.115,47.794ZM1.385,40.526A1.386,1.386,0,0,1,0,39.141V33.688a1.385,1.385,0,0,1,2.771,0v5.453A1.384,1.384,0,0,1,1.385,40.526Zm63.729-6.362a1.386,1.386,0,0,1-1.385-1.385V27.326a1.385,1.385,0,1,1,2.771,0v5.453A1.386,1.386,0,0,1,65.115,34.164ZM1.385,26.9A1.386,1.386,0,0,1,0,25.511v-5.45a1.385,1.385,0,0,1,2.771,0v5.45A1.386,1.386,0,0,1,1.385,26.9Zm63.729-6.362a1.386,1.386,0,0,1-1.385-1.385V13.7a1.385,1.385,0,1,1,2.771,0v5.453A1.386,1.386,0,0,1,65.115,20.535ZM1.385,13.267A1.386,1.386,0,0,1,0,11.881V6.927c0-.205.011-.41.028-.612A1.438,1.438,0,0,1,1.521,5.046a1.387,1.387,0,0,1,1.266,1.5c-.011.127-.017.255-.017.385v4.954a1.386,1.386,0,0,1-1.385,1.385ZM64.937,6.916A1.383,1.383,0,0,1,63.6,5.877,4.141,4.141,0,0,0,60.933,3a1.385,1.385,0,1,1,.9-2.618,6.919,6.919,0,0,1,4.442,4.807,1.384,1.384,0,0,1-.995,1.687,1.365,1.365,0,0,1-.346.044Zm-11.7-4.145H47.786a1.385,1.385,0,0,1,0-2.771h5.453a1.385,1.385,0,0,1,0,2.771Zm-13.63,0H34.156a1.385,1.385,0,1,1,0-2.771h5.453a1.385,1.385,0,1,1,0,2.771Zm-13.63,0H20.526a1.385,1.385,0,0,1,0-2.771h5.453a1.385,1.385,0,0,1,0,2.771Zm-13.633,0H6.927a1.4,1.4,0,0,1-1.4-1.385A1.372,1.372,0,0,1,6.894,0h5.453a1.385,1.385,0,0,1,0,2.771Z" transform="translate(0)" fill="#ae4376"/>
  <path id="Path_155" data-name="Path 155" d="M12.885,31.825A1.386,1.386,0,0,1,11.5,30.439V6.884a1.385,1.385,0,0,1,2.771,0V30.439A1.386,1.386,0,0,1,12.885,31.825Z" transform="translate(20.365 9.738)" fill="#ae4376"/>
  <path id="Path_156" data-name="Path 156" d="M26.509,16.082a1.392,1.392,0,0,1-.981-.4L18.2,8.343l-7.332,7.334a1.385,1.385,0,0,1-1.959-1.959l8.313-8.312a1.386,1.386,0,0,1,1.959,0l8.313,8.312a1.384,1.384,0,0,1-.981,2.364Z" transform="translate(15.053 8.855)" fill="#ae4376"/>
  <path id="Path_157" data-name="Path 157" d="M35.094,25.083H10.156A4.161,4.161,0,0,1,6,20.927V15.385a1.385,1.385,0,0,1,2.771,0v5.542a1.388,1.388,0,0,0,1.385,1.385H35.094a1.388,1.388,0,0,0,1.385-1.385V15.385a1.385,1.385,0,1,1,2.771,0v5.542A4.161,4.161,0,0,1,35.094,25.083Z" transform="translate(10.625 24.792)" fill="#ae4376"/>
</svg>
