<svg id="Capa_1" enable-background="new 0 0 512 512" height="512" viewBox="0 0 512 512" width="512" xmlns="http://www.w3.org/2000/svg"><g><path d="m341 452h-170c-22.091 0-40 17.909-40 40v5c0 8.284 6.716 15 15 15h220c8.284 0 15-6.716 15-15v-5c0-22.091-17.909-40-40-40z"/><path d="m0 335c0 30.327 24.673 55 55 55h121.266l-8.889 32h177.247l-8.889-32h121.265c30.327 0 55-24.673 55-55v-5h-512z"/><path d="m346 105c-24.813 0-45 20.187-45 45s20.187 45 45 45 45-20.187 45-45-20.187-45-45-45zm0 60c-8.284 0-15-6.716-15-15s6.716-15 15-15 15 6.716 15 15-6.716 15-15 15z"/><path d="m457 0h-402c-30.327 0-55 24.673-55 55v245h512v-245c0-30.327-24.673-55-55-55zm-261 240h-75c0 8.284-6.716 15-15 15s-15-6.716-15-15h-15c-8.284 0-15-6.716-15-15s6.716-15 15-15h15c0-8.284 6.716-15 15-15s15 6.716 15 15h75c8.284 0 15 6.716 15 15s-6.716 15-15 15zm0-75h-15c0 8.284-6.716 15-15 15s-15-6.716-15-15h-75c-8.284 0-15-6.716-15-15s6.716-15 15-15h75c0-8.284 6.716-15 15-15s15 6.716 15 15h15c8.284 0 15 6.716 15 15s-6.716 15-15 15zm0-75h-75c0 8.284-6.716 15-15 15s-15-6.716-15-15h-15c-8.284 0-15-6.716-15-15s6.716-15 15-15h15c0-8.284 6.716-15 15-15s15 6.716 15 15h75c8.284 0 15 6.716 15 15s-6.716 15-15 15zm255 60c0 8.284-6.716 15-15 15h-16.509c-1.949 9.562-5.731 18.46-10.948 26.33l11.704 11.704c5.858 5.858 5.858 15.355 0 21.213-5.858 5.858-15.355 5.858-21.213 0l-11.704-11.704c-7.869 5.218-16.768 9-26.329 10.948v16.509c0 8.284-6.716 15-15 15-8.284 0-15-6.716-15-15v-16.51c-9.561-1.948-18.46-5.731-26.329-10.948l-11.704 11.704c-5.858 5.858-15.355 5.858-21.213 0-5.858-5.858-5.858-15.355 0-21.213l11.704-11.704c-5.217-7.869-9-16.768-10.948-26.33h-16.511c-8.284 0-15-6.716-15-15 0-8.284 6.716-15 15-15h16.509c1.949-9.562 5.731-18.46 10.948-26.33l-11.704-11.704c-5.858-5.858-5.858-15.355 0-21.213 5.858-5.858 15.355-5.858 21.213 0l11.704 11.704c7.869-5.218 16.768-9 26.329-10.948v-16.508c0-8.284 6.716-15 15-15 8.284 0 15 6.716 15 15v16.51c9.561 1.948 18.46 5.731 26.329 10.948l11.704-11.704c5.858-5.857 15.355-5.857 21.213 0 5.858 5.858 5.858 15.355 0 21.213l-11.704 11.704c5.218 7.869 9 16.768 10.948 26.33h16.511c8.284-.001 15 6.715 15 14.999z"/></g></svg>